<?xml version="1.0" encoding="UTF-8"?>
<svg version="1.1" xmlns="http://www.w3.org/2000/svg" width="512" height="512">
<path d="M0 0 C0.93437897 0.00054382 1.86875793 0.00108765 2.83145142 0.00164795 C73.35959412 0.18920085 136.29543084 29.4252431 186.1875 78.375 C188.64868194 80.94869311 190.9202107 83.63092055 193.1875 86.375 C194.37666016 87.71498047 194.37666016 87.71498047 195.58984375 89.08203125 C232.2938078 130.66462545 256.09852784 188.49418344 256.390625 244.16796875 C256.39763931 245.06850983 256.40465363 245.9690509 256.41188049 246.8968811 C256.42927902 249.78547226 256.4357324 252.67385837 256.4375 255.5625 C256.43851212 257.04355728 256.43851212 257.04355728 256.43954468 258.55453491 C256.42379657 273.04588264 255.97091075 287.11520251 253.1875 301.375 C253.02652832 302.27202637 252.86555664 303.16905273 252.69970703 304.09326172 C248.46478697 327.49719555 240.71857684 350.06964498 230.1875 371.375 C229.82156738 372.11927246 229.45563477 372.86354492 229.07861328 373.63037109 C215.83939276 400.26663066 196.40202183 427.3844624 173.40234375 446.52734375 C171.65604723 447.9841308 169.94752023 449.48619359 168.25390625 451.00390625 C126.41738489 488.33065559 68.147051 512.26496144 11.8671875 512.578125 C11.01399933 512.58518463 10.16081116 512.59224426 9.2817688 512.59951782 C-26.97530345 512.83126737 -26.97530345 512.83126737 -44.8125 509.375 C-45.84117187 509.17632324 -46.86984375 508.97764648 -47.9296875 508.77294922 C-91.5588667 500.04318989 -132.02740718 481.51126405 -165.8125 452.375 C-166.54597656 451.75238281 -167.27945313 451.12976563 -168.03515625 450.48828125 C-181.86429878 438.41446728 -195.12647114 425.33794396 -205.8125 410.375 C-206.25996582 409.75592773 -206.70743164 409.13685547 -207.16845703 408.49902344 C-230.05715915 376.66430047 -245.70679825 340.98558848 -252.8125 302.375 C-253.05371582 301.17399658 -253.05371582 301.17399658 -253.29980469 299.94873047 C-258.7919441 271.87087547 -258.54646692 238.38522065 -252.8125 210.375 C-252.52246094 208.88009033 -252.52246094 208.88009033 -252.2265625 207.35498047 C-242.78717854 159.58266611 -220.79618974 115.39628422 -186.8125 80.375 C-186.13590332 79.66730469 -185.45930664 78.95960937 -184.76220703 78.23046875 C-174.15444199 67.16628312 -163.29346844 57.27177861 -150.8125 48.375 C-149.90371094 47.7046875 -148.99492187 47.034375 -148.05859375 46.34375 C-140.9563391 41.19549292 -133.41135157 36.74124204 -125.8125 32.375 C-125.17489746 32.00616699 -124.53729492 31.63733398 -123.88037109 31.25732422 C-101.33613209 18.35780137 -76.56411676 9.83654516 -51.1875 4.625 C-50.22328125 4.42608154 -49.2590625 4.22716309 -48.265625 4.0222168 C-32.24075804 0.90938639 -16.29591154 -0.03600905 0 0 Z " fill="#131116" transform="translate(255.8125,-0.375)"/>
<path d="M0 0 C5.73160249 2.56205273 10.23990343 6.98892496 15 11 C15.5451123 11.45729492 16.09022461 11.91458984 16.65185547 12.38574219 C25.69326301 19.98606915 34.40424245 27.90065398 43 36 C37.82385061 42.26647457 32.15991018 47.97769391 26.40786743 53.71238708 C25.3300277 54.79066339 24.25240795 55.86915963 23.17498815 56.94785553 C20.22637536 59.89869639 17.27466706 62.84642347 14.32242894 65.79363668 C11.13459588 68.97714113 7.94966374 72.16354551 4.76437378 75.34959412 C-0.75055732 80.86504892 -6.26731271 86.3786735 -11.78532028 91.89105034 C-19.7633777 99.86097202 -27.73866413 107.83366183 -35.71328242 115.80702449 C-48.65243932 128.74399413 -61.59382663 141.67873019 -74.53662109 154.61206055 C-87.10745578 167.17371268 -99.67723712 179.7364173 -112.24560547 192.30053711 C-113.40816923 193.46270679 -113.40816923 193.46270679 -114.59421913 194.64835464 C-118.48247106 198.53530151 -122.37070232 202.42226906 -126.25892329 206.3092469 C-158.50274391 238.54270507 -190.75018631 270.77253801 -223 303 C-238.18284303 295.80222233 -250.01961102 273.01412091 -258.00732422 258.76660156 C-258.97762934 257.03981164 -259.97486897 255.32824449 -260.97265625 253.6171875 C-269.75568692 238.20874412 -276.3031484 221.07874235 -281 204 C-281.30921387 202.91928223 -281.61842773 201.83856445 -281.93701172 200.72509766 C-286.11996937 185.71953439 -288.20166967 170.45180036 -290 155 C-290.21221191 153.21384277 -290.21221191 153.21384277 -290.42871094 151.39160156 C-292.21485044 134.34484805 -292.21485044 134.34484805 -287.6484375 128.35546875 C-285.03225225 125.58973837 -282.10400517 123.4275517 -278.94580078 121.31835938 C-276.97866477 119.98554451 -275.13280476 118.561714 -273.27734375 117.078125 C-250.2225686 98.8076312 -224.11841548 84.26888559 -197 73 C-196.07687012 72.61279785 -195.15374023 72.2255957 -194.20263672 71.82666016 C-167.76792232 60.86183537 -140.09679763 53.26226223 -112.3125 46.5703125 C-108.1132754 45.53469292 -103.96766466 44.32968716 -99.8203125 43.10546875 C-96.75925891 42.21970375 -93.69499051 41.37502261 -90.6171875 40.55078125 C-58.09696527 31.7810763 -26.336443 21.66834331 0 0 Z " fill="#F88042" transform="translate(304,118)"/>
<path d="M0 0 C4.61578133 3.95638399 8.82775072 7.73082524 12.875 12.1875 C13.3903833 12.75065918 13.9057666 13.31381836 14.43676758 13.89404297 C19.16248822 19.09958799 23.60665752 24.51225859 28 30 C29.68271361 32.06645599 31.37281991 34.12672195 33.0625 36.1875 C34.375 37.79166667 35.6875 39.39583333 37 41 C35.59382811 45.08599685 33.63246445 47.95211223 30.9375 51.3125 C10.89876694 77.30836454 2.33406639 110.15454652 -5.56385803 141.43920898 C-8.24463862 152.0555069 -11.17597597 162.59280112 -14.1796875 173.12158203 C-14.98965593 175.96370339 -15.79248605 178.80775755 -16.59375 181.65234375 C-18.03994694 186.77486295 -19.51192711 191.88950149 -21 197 C-21.19239258 197.66660645 -21.38478516 198.33321289 -21.58300781 199.02001953 C-35.64567928 247.36513609 -58.37791085 292.37903953 -92 330 C-92.46744629 330.54366211 -92.93489258 331.08732422 -93.41650391 331.64746094 C-96.29763086 334.10836802 -100.19567473 333.48015444 -103.8125 333.4375 C-104.72612305 333.42992676 -105.63974609 333.42235352 -106.58105469 333.41455078 C-162.71414539 332.14343782 -215.24641396 310.80338019 -258.125 275.1875 C-258.68179443 274.73141357 -259.23858887 274.27532715 -259.81225586 273.80541992 C-262.81124588 271.27541544 -264.19931854 269.60136292 -266 266 C-178.22 178.22 -90.44 90.44 0 0 Z " fill="#F88042" transform="translate(357,165)"/>
<path d="M0 0 C0.83772949 0.00418945 1.67545898 0.00837891 2.53857422 0.01269531 C11.67933636 0.17320935 20.48437564 1.55465188 29.4375 3.3125 C30.10861816 3.4357666 30.77973633 3.5590332 31.47119141 3.68603516 C74.41801537 11.7003438 116.3102376 35.09125594 151.4375 60.3125 C149.92321656 64.63761021 146.67728683 66.60051476 143 69 C142.33315186 69.43570313 141.66630371 69.87140625 140.97924805 70.3203125 C117.49956049 85.2469364 90.03020373 93.10841936 63.23242188 99.62792969 C58.6074004 100.76075291 54.01494724 102.00464984 49.41796875 103.24609375 C46.28007006 104.09277618 43.13498666 104.9093424 39.98828125 105.72265625 C-15.96935252 120.31642851 -71.10469613 139.82648358 -116.86328125 176.25390625 C-119.34726364 178.14834723 -121.85130939 179.76677566 -124.5625 181.3125 C-122.62002263 121.77556866 -87.57267201 67.57934054 -45.93652344 27.53417969 C-40.7762891 22.70508339 -35.30326573 18.42262614 -29.5625 14.3125 C-28.84336426 13.79155762 -28.12422852 13.27061523 -27.38330078 12.73388672 C-23.66645914 10.0463243 -19.9361807 7.37799207 -16.1796875 4.74609375 C-15.57753418 4.32384521 -14.97538086 3.90159668 -14.35498047 3.46655273 C-9.55425375 0.37570076 -5.66636867 -0.03884988 0 0 Z " fill="#F88042" transform="translate(140.5625,47.6875)"/>
<path d="M0 0 C3.4917291 1.1639097 3.85680055 1.87244165 5.78515625 4.875 C6.57321655 6.09183472 6.57321655 6.09183472 7.37719727 7.33325195 C8.21142212 8.65329224 8.21142212 8.65329224 9.0625 10 C9.64249756 10.9077417 10.22249512 11.8154834 10.82006836 12.75073242 C32.8579349 47.44406754 52.58323096 85.14434909 59.65771484 126.03808594 C59.96941753 127.82470702 60.32049843 129.60434474 60.67578125 131.3828125 C61.26664463 134.59035657 61.67435371 137.75463863 62 141 C62.07863281 141.70592285 62.15726563 142.4118457 62.23828125 143.13916016 C63.62073344 157.04276296 60.45286325 165.10324311 52 176 C51.08989132 177.22693501 50.18101615 178.45478607 49.2734375 179.68359375 C44.07921031 186.58892664 38.40489738 193.01886554 32.49609375 199.31640625 C30.36940178 201.60284973 28.32927439 203.92987084 26.3125 206.3125 C22.85535164 210.28211976 19.02276354 213.61737471 15 217 C14.07574219 217.81210937 13.15148437 218.62421875 12.19921875 219.4609375 C-21.58250872 248.99705073 -72.79553747 276.91907611 -119 276 C-116.36510998 271.94908065 -113.58270958 268.1540818 -110.5625 264.375 C-73.96569546 217.35151967 -56.24375962 160.04586311 -41.49583435 103.20755005 C-21.01680469 24.32813405 -21.01680469 24.32813405 0 0 Z " fill="#D36D38" transform="translate(402,220)"/>
<path d="M0 0 C1 1 1 1 1.08984375 3.203125 C-0.23159079 29.63181585 -12.7416263 52.83515207 -29 73 C-32.20125148 71.49918233 -35.02348512 69.68580389 -37.9375 67.6875 C-78.34775148 40.61702924 -124.87496242 15.46881416 -174 10 C-174 9.34 -174 8.68 -174 8 C-119.73452517 -15.56710859 -56.27872074 -19.33896531 0 0 Z " fill="#F67F42" transform="translate(333,26)"/>
<path d="M0 0 C10.62158855 37.43798453 15.82120587 74.72717011 9.40136719 113.57080078 C9.0462241 115.72023733 8.72496771 117.87118888 8.4140625 120.02734375 C5.4365603 138.45305539 -0.45715081 156.94287512 -8 174 C-9.91025441 171.13461839 -10.41320187 169.75246102 -11.04296875 166.484375 C-11.22569336 165.57486084 -11.40841797 164.66534668 -11.59667969 163.72827148 C-11.88913574 162.2540271 -11.88913574 162.2540271 -12.1875 160.75 C-16.38399882 140.70935167 -22.68718509 121.70223369 -31 103 C-31.4340918 102.02337402 -31.86818359 101.04674805 -32.31542969 100.04052734 C-42.88760226 76.56909338 -55.9205761 54.55106045 -70.94702148 33.65625 C-72 32 -72 32 -73 29 C-54.59212449 14.07800125 -24.98309317 -5.51078256 0 0 Z " fill="#D26D38" transform="translate(486,179)"/>
<path d="M0 0 C1.26731159 3.80193477 0.51481804 4.95431095 -0.921875 8.64453125 C-1.3645874 9.78535156 -1.8072998 10.92617188 -2.26342773 12.1015625 C-2.75399658 13.32617188 -3.24456543 14.55078125 -3.75 15.8125 C-3.99920197 16.43914551 -4.24840393 17.06579102 -4.50515747 17.71142578 C-14.34237729 42.38084091 -26.91980848 65.81833514 -43 87 C-43.4419873 87.58475098 -43.88397461 88.16950195 -44.33935547 88.77197266 C-46.61856163 91.7712688 -48.93268888 94.73070844 -51.3203125 97.64453125 C-53.10566978 99.82600283 -54.62280723 101.94983684 -56.1796875 104.32421875 C-58.89511293 108.09779039 -61.32570783 111.30045941 -66.00292969 112.52392578 C-72.35726359 113.35389656 -78.65981751 112.67200535 -85 112 C-86.15242188 111.88640137 -87.30484375 111.77280273 -88.4921875 111.65576172 C-119.24307343 108.47986398 -147.9455224 100.89095409 -176 88 C-176 87.67 -176 87.34 -176 87 C-174.75992188 86.81566406 -173.51984375 86.63132812 -172.2421875 86.44140625 C-155.70135178 83.80015186 -139.90755535 79.12311557 -124 74 C-123.02160156 73.68627441 -122.04320312 73.37254883 -121.03515625 73.04931641 C-108.28330568 68.9105173 -96.06489287 63.83855024 -84 58 C-83.03433105 57.53352051 -82.06866211 57.06704102 -81.07373047 56.58642578 C-50.96249533 41.87106179 -24.79095514 22.35670115 0 0 Z " fill="#D36D38" transform="translate(326,386)"/>
<path d="M0 0 C4.61804247 0.65332771 8.57771218 2.45078733 12.75 4.4375 C13.49443359 4.79166992 14.23886719 5.14583984 15.00585938 5.51074219 C35.99741336 15.68873283 56.74570909 29.12054406 73 46 C71.36256066 50.17615799 68.30218208 52.9648153 65.17333984 56.05371094 C64.57807999 56.64926285 63.98282013 57.24481476 63.36952209 57.8584137 C61.40469823 59.82184643 59.43288961 61.77810373 57.4609375 63.734375 C56.09572521 65.0958564 54.73095439 66.45778061 53.36660767 67.82012939 C49.77726841 71.40183824 46.1819632 74.9774999 42.58538818 78.55194092 C38.91528681 82.20157121 35.25085171 85.85688092 31.5859375 89.51171875 C24.39616348 96.68005329 17.20007484 103.842013 10 111 C7.02183282 109.57567584 5.02068318 108.22096735 2.75 105.8125 C-0.98629732 101.97394612 -4.93363714 98.483583 -9 95 C-10.09007753 94.057562 -11.17990107 93.11483018 -12.26953125 92.171875 C-19.06917809 86.30085126 -25.9269514 80.54109798 -33 75 C-30.91309525 71.3495522 -28.56798031 68.14997186 -25.9375 64.875 C-12.87060187 47.76983258 -3.51352106 25.64735182 -1.25390625 4.1953125 C-1 2 -1 2 0 0 Z " fill="#F78042" transform="translate(348,33)"/>
<path d="M0 0 C21.31861049 10.01130198 39.72858652 48.77524087 48 70 C48 70.99 48 71.98 48 73 C46.20369141 73.34611328 46.20369141 73.34611328 44.37109375 73.69921875 C18.75848698 78.76777427 -5.55967601 87.98213874 -25 106 C-28.04844219 104.66919139 -29.81106648 103.34581007 -31.84765625 100.7265625 C-32.36505371 100.07236328 -32.88245117 99.41816406 -33.41552734 98.74414062 C-33.95902832 98.04482422 -34.5025293 97.34550781 -35.0625 96.625 C-40.00877454 90.39210608 -45.12696656 84.44432154 -50.5546875 78.62890625 C-53.29397328 75.68395525 -55.93993167 72.66982943 -58.5625 69.62109375 C-59.98550816 68.0163427 -61.46784521 66.5002349 -63 65 C-61.36256066 60.82384201 -58.30218208 58.0351847 -55.17333984 54.94628906 C-54.57807999 54.35073715 -53.98282013 53.75518524 -53.36952209 53.1415863 C-51.40469823 51.17815357 -49.43288961 49.22189627 -47.4609375 47.265625 C-46.09572521 45.9041436 -44.73095439 44.54221939 -43.36660767 43.17987061 C-39.77726841 39.59816176 -36.1819632 36.0225001 -32.58538818 32.44805908 C-28.91528681 28.79842879 -25.25085171 25.14311908 -21.5859375 21.48828125 C-14.39616348 14.31994671 -7.20007484 7.157987 0 0 Z " fill="#D36D38" transform="translate(431,91)"/>
<path d="M0 0 C3 1 3 1 4.6875 2.875 C12.16562434 20.68005796 -1.92462958 50.63975331 -8.52172852 67.21118164 C-17.32176159 88.53521329 -28.38943169 107.87828927 -41.49462891 126.82128906 C-42.67957394 128.53625006 -43.84372136 130.26558204 -45 132 C-45.99 132 -46.98 132 -48 132 C-47.36592211 125.67396706 -46.02993063 119.7570094 -44.375 113.625 C-44.10921143 112.62678223 -43.84342285 111.62856445 -43.56958008 110.60009766 C-43.00346523 108.4769611 -42.43513601 106.35441391 -41.86474609 104.23242188 C-41.01859492 101.06950784 -40.1889991 97.90267764 -39.36328125 94.734375 C-20.85112991 24.13635617 -20.85112991 24.13635617 0 0 Z " fill="#F57F42" transform="translate(402,220)"/>
<path d="M0 0 C4.84744333 20.91161162 8.04772027 41.88430112 8.5625 63.375 C8.60157471 64.27814941 8.64064941 65.18129883 8.6809082 66.11181641 C8.70579675 72.12558372 8.70579675 72.12558372 6.62451172 74.70410156 C4.96484375 76.1015625 4.96484375 76.1015625 2 78 C-1.04844219 76.66919139 -2.81106648 75.34581007 -4.84765625 72.7265625 C-5.36505371 72.07236328 -5.88245117 71.41816406 -6.41552734 70.74414062 C-6.95902832 70.04482422 -7.5025293 69.34550781 -8.0625 68.625 C-13.00877454 62.39210608 -18.12696656 56.44432154 -23.5546875 50.62890625 C-26.29397328 47.68395525 -28.93993167 44.66982943 -31.5625 41.62109375 C-32.98550816 40.0163427 -34.46784521 38.5002349 -36 37 C-34.64052727 33.96167743 -33.11126454 31.86255442 -30.75952148 29.51660156 C-30.10221542 28.85621887 -29.44490936 28.19583618 -28.76768494 27.51544189 C-28.05930984 26.81425232 -27.35093475 26.11306274 -26.62109375 25.390625 C-25.53019188 24.30041046 -25.53019188 24.30041046 -24.41725159 23.18817139 C-22.88217714 21.6561141 -21.3446769 20.12648406 -19.80493164 18.59912109 C-17.43771767 16.25021599 -15.07865581 13.89335453 -12.72070312 11.53515625 C-11.22963886 10.04900526 -9.73811816 8.56331205 -8.24609375 7.078125 C-7.53569443 6.3688385 -6.8252951 5.659552 -6.09336853 4.92877197 C-5.43921463 4.28099792 -4.78506073 3.63322388 -4.11108398 2.96582031 C-3.53309555 2.39164368 -2.95510712 1.81746704 -2.35960388 1.22589111 C-1 0 -1 0 0 0 Z " fill="#F78042" transform="translate(404,119)"/>
<path d="M0 0 C2.22810082 1.46185152 3.71589459 2.77944544 4.9140625 5.17578125 C6.03203875 14.37512867 3.71776407 20.63512925 -1.4375 28.14453125 C-6.4790078 34.5661166 -13.2308451 39.01832766 -21.0859375 41.17578125 C-31.84605674 42.4029257 -31.84605674 42.4029257 -36.00390625 40.125 C-39.28147945 36.8666501 -40.26676423 34.02767254 -40.3984375 29.55078125 C-40.24303115 20.51131173 -35.60480691 14.966131 -29.6015625 8.515625 C-21.81887311 1.27675707 -10.68165816 -4.22065519 0 0 Z " fill="#FAB28D" transform="translate(137.0859375,76.82421875)"/>
<path d="M0 0 C15.47049076 8.44106852 30.74732645 19.24379193 43 32 C41.48623919 35.56764285 39.39486871 37.83706287 36.6484375 40.546875 C35.79765625 41.39121094 34.946875 42.23554687 34.0703125 43.10546875 C33.18085938 43.97816406 32.29140625 44.85085937 31.375 45.75 C30.4778125 46.63816406 29.580625 47.52632812 28.65625 48.44140625 C26.44192996 50.63216969 24.22307565 52.81812763 22 55 C19.67839894 52.67839894 19.22481033 51.10383316 18.22265625 47.99609375 C17.70723267 46.43665039 17.70723267 46.43665039 17.18139648 44.84570312 C16.81216064 43.72099609 16.4429248 42.59628906 16.0625 41.4375 C12.42596222 30.59251258 8.19788081 20.15393391 3.45532227 9.74780273 C3.00471436 8.75852783 2.55410645 7.76925293 2.08984375 6.75 C1.68628662 5.87859375 1.28272949 5.0071875 0.86694336 4.109375 C0 2 0 2 0 0 Z " fill="#D26D38" transform="translate(378,47)"/>
<path d="M0 0 C2.5625 1.3125 2.5625 1.3125 4 4 C4.83514108 10.22471431 4.65288656 15.70961256 1 21 C-4.21880651 26.88788427 -4.21880651 26.88788427 -8 28 C-12.0471022 27.92773032 -14.24574716 27.59953431 -17.4375 25.0625 C-19.6987742 20.63040256 -19.86107569 16.87695453 -19 12 C-15.37700258 3.3137152 -9.61527757 -1.66832241 0 0 Z " fill="#FAB28C" transform="translate(91,126)"/>
</svg>
