<?xml version="1.0" encoding="UTF-8"?>
<svg version="1.1" xmlns="http://www.w3.org/2000/svg" width="96" height="96">
<path d="M0 0 C16.5 0 33 0 50 0 C50 2.64 50 5.28 50 8 C50.98226562 8.1134375 51.96453125 8.226875 52.9765625 8.34375 C57.25895222 8.95644455 61.26590394 10.17570569 65.375 11.5 C66.09816406 11.72558594 66.82132812 11.95117188 67.56640625 12.18359375 C72.86300223 13.86300223 72.86300223 13.86300223 74 15 C73.56984379 22.55559613 71.62292315 29.40339371 69.4375 36.62109375 C68.91047485 38.39275658 68.91047485 38.39275658 68.37280273 40.20021057 C67.63329077 42.6813344 66.89014339 45.16137728 66.14355469 47.64038086 C64.99698383 51.44751504 63.86081403 55.25753894 62.7265625 59.06835938 C62.00580213 61.48194824 61.28446828 63.89536593 60.5625 66.30859375 C60.22081787 67.45122177 59.87913574 68.59384979 59.52709961 69.77110291 C59.2100708 70.82302322 58.89304199 71.87494354 58.56640625 72.95874023 C58.28740479 73.88645737 58.00840332 74.8141745 57.72094727 75.77000427 C57 78 57 78 56 80 C45.99045345 79.52850026 36.96929167 76.38687818 27.53051758 73.29296875 C25.40298892 72.59968828 23.27033141 71.92428516 21.13671875 71.25 C19.88592529 70.84265625 18.63513184 70.4353125 17.34643555 70.015625 C11.6780782 68.69110854 5.80390366 68.44645413 0 68 C0 45.56 0 23.12 0 0 Z " fill="#CED7DB" transform="translate(12,8)"/>
<path d="M0 0 C11.31188119 2.26237624 11.31188119 2.26237624 15.0625 3.5625 C15.79597656 3.81128906 16.52945313 4.06007813 17.28515625 4.31640625 C19 5 19 5 20 6 C19.56984379 13.55559613 17.62292315 20.40339371 15.4375 27.62109375 C15.0861499 28.8022023 14.7347998 29.98331085 14.37280273 31.20021057 C13.63329077 33.6813344 12.89014339 36.16137728 12.14355469 38.64038086 C10.99698383 42.44751504 9.86081403 46.25753894 8.7265625 50.06835938 C8.00580213 52.48194824 7.28446828 54.89536593 6.5625 57.30859375 C6.22081787 58.45122177 5.87913574 59.59384979 5.52709961 60.77110291 C5.2100708 61.82302322 4.89304199 62.87494354 4.56640625 63.95874023 C4.28740479 64.88645737 4.00840332 65.8141745 3.72094727 66.77000427 C3 69 3 69 2 71 C-5.23766805 70.55677807 -11.7298144 69.13885185 -18.625 66.9375 C-19.53378906 66.65583984 -20.44257812 66.37417969 -21.37890625 66.08398438 C-23.58873894 65.39777317 -25.79548541 64.70307008 -28 64 C-28 63.67 -28 63.34 -28 63 C-27.2886792 62.98541748 -26.5773584 62.97083496 -25.84448242 62.95581055 C-22.62493668 62.88138994 -19.40643482 62.78471 -16.1875 62.6875 C-15.06794922 62.66494141 -13.94839844 62.64238281 -12.79492188 62.61914062 C-11.72177734 62.58369141 -10.64863281 62.54824219 -9.54296875 62.51171875 C-8.55321045 62.48553467 -7.56345215 62.45935059 -6.54370117 62.43237305 C-3.9912331 62.18156769 -3.9912331 62.18156769 -2.17675781 60.7487793 C-0.68283262 58.52865768 -0.63135082 57.17238862 -0.62890625 54.5078125 C-0.61150391 53.63769531 -0.59410156 52.76757812 -0.57617188 51.87109375 C-0.56709626 50.04819223 -0.56185457 48.22526739 -0.56054688 46.40234375 C-0.44161481 40.84944657 0.04037407 38.17787303 4 34 C4.32670315 30.2102435 4.20190901 27.60572704 3 24 C2.01 23.67 1.02 23.34 0 23 C0 15.41 0 7.82 0 0 Z " fill="#CFD6D9" transform="translate(66,17)"/>
<path d="M0 0 C2.95432052 1.38442374 5.51242769 2.98552107 8.125 4.9375 C8.80820312 5.44152344 9.49140625 5.94554687 10.1953125 6.46484375 C12 8 12 8 14 11 C13.86714936 14.71981784 13.75057131 17.110434 11.3125 20 C8.22020156 21.33721014 6.21223855 20.80305964 3 20 C3.99 22.31 4.98 24.62 6 27 C2.7 27 -0.6 27 -4 27 C-3.01 24.69 -2.02 22.38 -1 20 C-1.886875 20.268125 -2.77375 20.53625 -3.6875 20.8125 C-7 21 -7 21 -9.9375 19 C-12 16 -12 16 -11.9765625 12.62109375 C-10.75948348 8.10816475 -9.14065829 6.82922746 -5.4375 4.0625 C-4.42558594 3.29035156 -3.41367187 2.51820312 -2.37109375 1.72265625 C-1.58863281 1.15417969 -0.80617188 0.58570312 0 0 Z " fill="#2A363C" transform="translate(36,29)"/>
<path d="M0 0 C6.34969325 1.26993865 6.34969325 1.26993865 9 5 C9.5 8.4375 9.5 8.4375 9 12 C8.34 12.6909375 7.68 13.381875 7 14.09375 C4.10333289 18.3029694 4.47839695 22.06859486 4.5 27.0625 C4.50767796 28.84506598 4.49790358 30.62781215 4.46875 32.41015625 C4.47326172 33.19527588 4.47777344 33.98039551 4.48242188 34.78930664 C3.79496368 37.93957684 2.56647845 39.08891786 0 41 C-2.77392578 41.50170898 -2.77392578 41.50170898 -5.9453125 41.49609375 C-7.10546875 41.49673828 -8.265625 41.49738281 -9.4609375 41.49804688 C-11.27464844 41.46807617 -11.27464844 41.46807617 -13.125 41.4375 C-14.3109375 41.44458984 -15.496875 41.45167969 -16.71875 41.45898438 C-23.96734453 41.40698011 -30.2059462 40.56167642 -37 38 C-37 37.67 -37 37.34 -37 37 C-25.12 36.67 -13.24 36.34 -1 36 C-0.67 24.12 -0.34 12.24 0 0 Z " fill="#92A5AE" transform="translate(62,39)"/>
<path d="M0 0 C6.34969325 1.26993865 6.34969325 1.26993865 9 5 C9.60070929 9.12987637 9.47042865 11.21595224 7.3125 14.8125 C5 17 5 17 0 19 C0 12.73 0 6.46 0 0 Z " fill="#DC2D02" transform="translate(62,39)"/>
<path d="M0 0 C1.32 0 2.64 0 4 0 C4 7.59 4 15.18 4 23 C2.68 23 1.36 23 0 23 C0 15.41 0 7.82 0 0 Z " fill="#91A4AD" transform="translate(62,16)"/>
<path d="M0 0 C3 1 3 1 5 4 C5.4375 7.375 5.4375 7.375 5 11 C3.35 12.65 1.7 14.3 0 16 C0 10.72 0 5.44 0 0 Z " fill="#FD4106" transform="translate(66,40)"/>
<path d="M0 0 C0.99 0.33 1.98 0.66 3 1 C3.94921875 3.06640625 3.94921875 3.06640625 4.6875 5.5625 C5.06455078 6.80193359 5.06455078 6.80193359 5.44921875 8.06640625 C5.63097656 8.70449219 5.81273437 9.34257812 6 10 C5.01 10 4.02 10 3 10 C3 9.34 3 8.68 3 8 C1.68 8 0.36 8 -1 8 C-1 8.66 -1 9.32 -1 10 C-1.99 10 -2.98 10 -4 10 C-3.52449439 8.51965236 -3.04448784 7.04074979 -2.5625 5.5625 C-2.29566406 4.73878906 -2.02882812 3.91507813 -1.75390625 3.06640625 C-1 1 -1 1 0 0 Z " fill="#354147" transform="translate(52,12)"/>
<path d="M0 0 C0.99 0 1.98 0 3 0 C3 0.66 3 1.32 3 2 C4.32 2 5.64 2 7 2 C7 1.34 7 0.68 7 0 C7.99 0.33 8.98 0.66 10 1 C8.68 3.97 7.36 6.94 6 10 C5.01 9.67 4.02 9.34 3 9 C2.05078125 6.93359375 2.05078125 6.93359375 1.3125 4.4375 C1.06113281 3.61121094 0.80976563 2.78492187 0.55078125 1.93359375 C0.36902344 1.29550781 0.18726562 0.65742187 0 0 Z " fill="#2F3B41" transform="translate(16,62)"/>
<path d="M0 0 C0.99 0.33 1.98 0.66 3 1 C3 4.3 3 7.6 3 11 C2.34 11 1.68 11 1 11 C0.67 10.34 0.34 9.68 0 9 C-1.98 9 -3.96 9 -6 9 C-4.02 6.03 -2.04 3.06 0 0 Z " fill="#F8501C" transform="translate(75,24)"/>
<path d="M0 0 C1.32 0.33 2.64 0.66 4 1 C3.67 2.32 3.34 3.64 3 5 C2.34 5 1.68 5 1 5 C1 5.66 1 6.32 1 7 C0.01 7 -0.98 7 -2 7 C-1.34 4.69 -0.68 2.38 0 0 Z " fill="#49545A" transform="translate(50,15)"/>
<path d="M0 0 C0.99 0.33 1.98 0.66 3 1 C2.34 2.65 1.68 4.3 1 6 C-0.32 6 -1.64 6 -3 6 C-3 3 -3 3 -1.5 1.3125 C-0.7575 0.6628125 -0.7575 0.6628125 0 0 Z " fill="#49545A" transform="translate(23,62)"/>
</svg>
