<svg width="142" height="23" viewBox="0 0 142 23" fill="none" xmlns="http://www.w3.org/2000/svg">
<path d="M48.6718 1.47803H93.3472V8.87557H65.7422V10.361H93.3483V17.7586H65.7422V20.7177H48.6718V1.47803Z" fill="#F8FAFC"/>
<path d="M2.49239 1.47803H22.5723L30.0975 14.7972V1.47803H47.168V20.7177H27.088L19.5629 7.39858V20.7177H2.49239V1.47803Z" fill="#F8FAFC"/>
<path d="M139.523 8.13866V5.8995C139.523 3.45716 137.511 1.47803 135.026 1.47803H99.3443C96.8603 1.47803 94.8476 3.45716 94.8476 5.8995V8.39026C94.8476 10.7389 96.7147 12.677 99.0985 12.8054L122.452 14.0571V16.2773H111.917V14.0571H94.8465V16.2952C94.8465 18.7376 96.8592 20.7167 99.3433 20.7167H135.026C137.511 20.7167 139.523 18.7376 139.523 16.2952V13.8044C139.523 11.4558 137.656 9.51774 135.272 9.38931L111.917 8.13761V5.91844H122.452V8.13866H139.523Z" fill="#F8FAFC"/>
</svg>
