<?xml version="1.0" encoding="UTF-8"?>
<svg version="1.1" xmlns="http://www.w3.org/2000/svg" width="512" height="512">
<path d="M0 0 C0.87269531 -0.0038269 1.74539062 -0.00765381 2.64453125 -0.01159668 C4.48699092 -0.0143149 6.32948924 -0.00695994 8.171875 0.00976562 C10.99045934 0.03117752 13.80649485 0.00996199 16.625 -0.015625 C18.41667229 -0.01298171 20.20834299 -0.00785669 22 0 C22.84175781 -0.00809692 23.68351562 -0.01619385 24.55078125 -0.02453613 C28.31082437 0.03565687 30.37797303 0.10595491 33.53808594 2.26660156 C35.22575346 4.88096427 35.4697632 6.21048533 35.390625 9.296875 C35.37773437 10.18632812 35.36484375 11.07578125 35.3515625 11.9921875 C35.30128906 13.37277344 35.30128906 13.37277344 35.25 14.78125 C35.23195313 15.71710937 35.21390625 16.65296875 35.1953125 17.6171875 C35.14825673 19.92292015 35.08253713 22.22655945 35 24.53125 C35.58491211 24.51030273 36.16982422 24.48935547 36.77246094 24.46777344 C39.43146465 24.38444885 42.09019355 24.33254103 44.75 24.28125 C45.67039062 24.24773438 46.59078125 24.21421875 47.5390625 24.1796875 C48.42851562 24.16679688 49.31796875 24.15390625 50.234375 24.140625 C51.05131836 24.11967773 51.86826172 24.09873047 52.70996094 24.07714844 C56.04934123 24.73932833 57.07540969 25.71638775 59 28.53125 C59.58463093 31.53309559 59.56059442 34.4805981 59.53125 37.53125 C59.5350769 38.40394531 59.53890381 39.27664062 59.54284668 40.17578125 C59.5455649 42.01824092 59.53820994 43.86073924 59.52148438 45.703125 C59.50007248 48.52170934 59.52128801 51.33774485 59.546875 54.15625 C59.54423171 55.94792229 59.53910669 57.73959299 59.53125 59.53125 C59.53934692 60.37300781 59.54744385 61.21476562 59.55578613 62.08203125 C59.49559313 65.84207437 59.42529509 67.90922303 57.26464844 71.06933594 C54.65028573 72.75700346 53.32076467 73.0010132 50.234375 72.921875 C49.43225586 72.91188477 48.63013672 72.90189453 47.80371094 72.89160156 C46.79598633 72.85518555 45.78826172 72.81876953 44.75 72.78125 C41.5325 72.69875 38.315 72.61625 35 72.53125 C35 81.77125 35 91.01125 35 100.53125 C37.97 101.02625 37.97 101.02625 41 101.53125 C50.54020398 105.86506217 56.21868883 111.86931672 60.23828125 121.41796875 C63.83895942 131.40754255 62.15630708 140.29873186 58.37890625 149.984375 C57.00079557 153.5292036 55.81346885 157.08659243 54.6875 160.71875 C54.36136719 161.76417969 54.03523437 162.80960938 53.69921875 163.88671875 C52.8721911 166.55873776 52.8721911 166.55873776 53 169.53125 C54.41237856 170.4728357 55.82977541 171.40790019 57.2734375 172.30078125 C61.93074775 175.61990507 65.28681099 180.0930537 67 185.53125 C67.80402058 193.35642707 68.13325081 201.16431737 63 207.53125 C60.5026272 210.10265559 57.95048125 212.48762662 55 214.53125 C54.34 214.53125 53.68 214.53125 53 214.53125 C56.21323848 238.23589251 59.15268177 258.76484918 74.59985352 278.05493164 C92.55513721 300.60302771 97.58677608 325.07478433 96 353.53125 C95.30886066 359.38353635 93.81132955 364.93706619 92 370.53125 C91.77554199 371.24361816 91.55108398 371.95598633 91.31982422 372.68994141 C89.95450755 376.99770154 88.51255816 381.27253092 87 385.53125 C87.64066406 385.85996094 88.28132812 386.18867188 88.94140625 386.52734375 C96.99925421 390.95855969 103.66935007 397.03413334 106.5625 406.0390625 C108.23005542 415.53817282 108.14942955 425.15189152 103 433.53125 C102.4225 434.541875 101.845 435.5525 101.25 436.59375 C100.8375 437.233125 100.425 437.8725 100 438.53125 C100.50789062 438.90894531 101.01578125 439.28664063 101.5390625 439.67578125 C108.08977751 444.9138998 113.59164825 452.03521502 115 460.53125 C115.17044571 463.21367436 115.27604158 465.84791031 115.3125 468.53125 C115.34150391 469.2428125 115.37050781 469.954375 115.40039062 470.6875 C115.43946751 473.90984036 115.3332004 476.04957661 113.47631836 478.73387909 C110.06056531 481.2131141 107.0167052 481.08665564 102.953125 481.03918457 C101.72716614 481.04854451 101.72716614 481.04854451 100.47644043 481.05809355 C97.73400136 481.07406602 94.99244588 481.0614029 92.25 481.04882812 C90.28547649 481.05424736 88.32095704 481.0613689 86.35644531 481.07006836 C81.01763984 481.08832823 75.67914301 481.08122313 70.34033203 481.06855202 C64.75812944 481.05843818 59.17595361 481.0678132 53.59375 481.07409668 C44.21870164 481.08137779 34.84377924 481.07177318 25.46875 481.05273438 C14.62367661 481.03096481 3.77890399 481.03801584 -7.06616211 481.06004 C-16.37071308 481.07818075 -25.6751734 481.08075879 -34.97973633 481.07028532 C-40.53992647 481.06404312 -46.09997515 481.06323476 -51.66015625 481.07643127 C-56.88706572 481.08796983 -62.11358669 481.08000043 -67.3404541 481.05685425 C-69.26093907 481.0515565 -71.18145662 481.05309908 -73.10192871 481.06190491 C-75.71943838 481.07280201 -78.3356956 481.05916811 -80.953125 481.03918457 C-81.71693481 481.04810746 -82.48074463 481.05703034 -83.2677002 481.06622362 C-86.709661 481.01509252 -88.659647 480.78076251 -91.46972656 478.7206955 C-93.67005523 475.57256552 -93.59943571 472.61044644 -93.5 468.90625 C-93.48791504 468.19275391 -93.47583008 467.47925781 -93.46337891 466.74414062 C-93.00678148 454.512864 -86.6792257 445.69993301 -78 437.53125 C-79.175625 435.984375 -79.175625 435.984375 -80.375 434.40625 C-86.18375956 426.76314532 -85.72716716 417.64810826 -85 408.53125 C-84.1528294 405.1281272 -82.88652283 402.47304654 -81 399.53125 C-80.5875 398.83644531 -80.175 398.14164062 -79.75 397.42578125 C-75.93448278 391.64830773 -71.01257076 388.75089794 -65 385.53125 C-65.20157715 384.91717285 -65.4031543 384.3030957 -65.61083984 383.67041016 C-66.53811926 380.83424537 -67.4565913 377.99529913 -68.375 375.15625 C-68.69210938 374.19074219 -69.00921875 373.22523438 -69.3359375 372.23046875 C-72.82484988 361.40030324 -74.36767279 351.6820284 -74.3125 340.28125 C-74.30758545 339.08483887 -74.3026709 337.88842773 -74.29760742 336.65576172 C-74.00499613 314.61838009 -66.08669717 295.3048503 -52.5 278.09375 C-37.35872108 258.84002496 -34.19175539 238.24363205 -31 214.53125 C-31.78479736 214.23774658 -32.56959473 213.94424316 -33.37817383 213.6418457 C-36.31073844 212.39962237 -37.63813688 211.12732733 -39.6875 208.71875 C-40.55955078 207.71908203 -40.55955078 207.71908203 -41.44921875 206.69921875 C-46.07426514 200.2334738 -45.6776972 193.1944414 -45 185.53125 C-43.28891374 178.75188292 -38.44911617 174.60039519 -33 170.53125 C-32.34 170.20125 -31.68 169.87125 -31 169.53125 C-31.9854177 161.35907904 -34.47798342 154.33003571 -37.66015625 146.81640625 C-41.41582352 137.60790428 -41.04448171 128.24567434 -37.25390625 119.06640625 C-32.70696838 109.87337611 -25.72640712 103.90475263 -16 100.53125 C-15.01 100.53125 -14.02 100.53125 -13 100.53125 C-13 91.29125 -13 82.05125 -13 72.53125 C-19.40254656 72.68905162 -19.40254656 72.68905162 -25.80371094 72.89160156 C-27.00688965 72.90658691 -27.00688965 72.90658691 -28.234375 72.921875 C-29.05131836 72.94282227 -29.86826172 72.96376953 -30.70996094 72.98535156 C-34.04934123 72.32317167 -35.07540969 71.34611225 -37 68.53125 C-37.58463093 65.52940441 -37.56059442 62.5819019 -37.53125 59.53125 C-37.5350769 58.65855469 -37.53890381 57.78585938 -37.54284668 56.88671875 C-37.5455649 55.04425908 -37.53820994 53.20176076 -37.52148438 51.359375 C-37.50007248 48.54079066 -37.52128801 45.72475515 -37.546875 42.90625 C-37.54423171 41.11457771 -37.53910669 39.32290701 -37.53125 37.53125 C-37.53934692 36.68949219 -37.54744385 35.84773438 -37.55578613 34.98046875 C-37.49559313 31.22042563 -37.42529509 29.15327697 -35.26464844 25.99316406 C-32.65028573 24.30549654 -31.32076467 24.0614868 -28.234375 24.140625 C-26.90019531 24.15996094 -26.90019531 24.15996094 -25.5390625 24.1796875 C-24.15847656 24.22996094 -24.15847656 24.22996094 -22.75 24.28125 C-21.81414062 24.29929687 -20.87828125 24.31734375 -19.9140625 24.3359375 C-17.60832985 24.38299327 -15.30469055 24.44871287 -13 24.53125 C-13.0314209 23.65388184 -13.0314209 23.65388184 -13.06347656 22.75878906 C-13.14680115 20.09978535 -13.19870897 17.44105645 -13.25 14.78125 C-13.28351563 13.86085938 -13.31703125 12.94046875 -13.3515625 11.9921875 C-13.37089844 10.65800781 -13.37089844 10.65800781 -13.390625 9.296875 C-13.4220459 8.07145996 -13.4220459 8.07145996 -13.45410156 6.82128906 C-12.0147908 -0.43717057 -6.06389171 -0.05832897 0 0 Z " fill="#000000" transform="translate(245,15.46875)"/>
<path d="M0 0 C16.5 0 33 0 50 0 C52.25 14.125 52.25 14.125 52.93066406 18.48486328 C54.83385416 30.15024296 57.24049468 41.71842057 62.8125 52.25 C63.15869385 52.9212793 63.5048877 53.59255859 63.86157227 54.28417969 C67.35630872 60.92058436 71.51572771 66.88691012 76.19140625 72.74609375 C80.46643909 78.192963 84.05331656 83.56320477 87 89.8125 C87.29068359 90.42246826 87.58136719 91.03243652 87.88085938 91.66088867 C89.72390606 95.76479136 90.43435771 99.56307806 91 104 C90.44511902 104.00364563 89.89023804 104.00729126 89.31854248 104.01104736 C83.54315306 104.0528584 77.7685594 104.12219341 71.99365234 104.20751953 C69.83845987 104.23574499 67.68316357 104.25695165 65.52783203 104.27099609 C62.4294717 104.29240347 59.33236173 104.3390432 56.234375 104.390625 C55.27070007 104.39185364 54.30702515 104.39308228 53.31414795 104.39434814 C48.00443337 104.46135203 48.00443337 104.46135203 43.39160156 106.85058594 C41.47572074 109.80978151 41.42366445 111.54198672 42 115 C43.29030108 117.36320389 43.29030108 117.36320389 46 119 C49.62236099 119.62793968 53.22118179 119.6049949 56.890625 119.609375 C58.48025055 119.63417938 58.48025055 119.63417938 60.10198975 119.65948486 C63.48471831 119.70804555 66.86699705 119.72935437 70.25 119.75 C72.54429356 119.77815283 74.8385661 119.80807928 77.1328125 119.83984375 C82.75512645 119.91380655 88.37731347 119.96540179 94 120 C94.15868644 127.14834947 94.24838252 133.76512313 92.375 140.6875 C92.20186279 141.33468994 92.02872559 141.98187988 91.8503418 142.64868164 C85.58808594 165.41191406 85.58808594 165.41191406 83 168 C81.49448826 168.09575309 79.9844897 168.12188187 78.47593689 168.12025452 C77.00981209 168.12231651 77.00981209 168.12231651 75.5140686 168.12442017 C74.43297821 168.12082489 73.35188782 168.11722961 72.23803711 168.11352539 C70.54069679 168.11374443 70.54069679 168.11374443 68.80906677 168.1139679 C65.04847329 168.11326819 61.28792863 168.10547311 57.52734375 168.09765625 C54.92802457 168.09579227 52.32870503 168.09436828 49.72938538 168.09336853 C43.57411423 168.08993341 37.4188634 168.08204256 31.26359993 168.07201904 C24.25766654 168.06085694 17.25173233 168.05534721 10.24579227 168.05032361 C-4.16948133 168.03985992 -18.58474004 168.02226108 -33 168 C-33.63809565 166.4158036 -34.27508763 164.83116263 -34.91162109 163.24633789 C-35.26646576 162.36393936 -35.62131042 161.48154083 -35.98690796 160.57240295 C-37.3062492 157.22238424 -38.48298579 153.85249087 -39.625 150.4375 C-40.02976563 149.23996094 -40.43453125 148.04242188 -40.8515625 146.80859375 C-47.35159567 125.25236131 -44.71855993 104.4705793 -34.14453125 84.7265625 C-31.20866458 79.48384826 -27.68186236 74.73807338 -24 70 C-19.69948928 64.35735187 -16.05763875 58.54880826 -12.8125 52.25 C-12.49152344 51.64325439 -12.17054688 51.03650879 -11.83984375 50.41137695 C-6.19133203 39.08371851 -4.18320603 26.50778092 -2.25 14.125 C-1.5075 9.46375 -0.765 4.8025 0 0 Z " fill="#F69F13" transform="translate(231,232)"/>
<path d="M0 0 C1.14681747 -0.00571014 2.29363495 -0.01142029 3.47520447 -0.01730347 C5.371856 -0.01898026 5.371856 -0.01898026 7.30682373 -0.02069092 C8.64712155 -0.02531847 9.98741805 -0.03034305 11.32771301 -0.03573608 C14.97457485 -0.04887034 18.62141826 -0.05530733 22.26830006 -0.05974674 C24.5468273 -0.06267653 26.8253495 -0.06678121 29.10387421 -0.07125092 C36.23299265 -0.08493012 43.36209958 -0.09459403 50.49123025 -0.09845281 C58.72009632 -0.10293121 66.94879609 -0.12046713 75.17761159 -0.1494534 C81.53778144 -0.1710791 87.89790454 -0.1811576 94.25811076 -0.18249393 C98.05671372 -0.18354156 101.85516044 -0.18943999 105.65372467 -0.20731354 C109.22915235 -0.22380912 112.80430663 -0.22594267 116.37975883 -0.21717453 C118.31329716 -0.21603863 120.24682646 -0.22974557 122.18031311 -0.243927 C128.8813934 -0.21170229 134.09968252 -0.12597004 139.24334717 4.67559814 C143.43246144 10.15367065 144.22033994 13.32669708 143.59881592 20.14044189 C141.77347001 25.41366342 138.99162389 27.93735275 134.59881592 31.14044189 C131.49330582 32.17561193 129.33427646 32.27369081 126.07737732 32.28761292 C124.35508911 32.29834587 124.35508911 32.29834587 122.5980072 32.30929565 C121.33716812 32.31198456 120.07632904 32.31467346 118.77728271 32.31744385 C117.436837 32.32370992 116.09639301 32.33035685 114.75595093 32.33735657 C110.35332444 32.35838067 105.95069767 32.36875678 101.54803467 32.37872314 C100.03164972 32.38277119 98.51526496 32.38688813 96.99888039 32.39107323 C89.87510789 32.41012056 82.75134574 32.42435306 75.62755269 32.4326852 C67.40713767 32.44245906 59.18699182 32.46878417 50.96667165 32.50918609 C44.61072903 32.53935189 38.25486355 32.55415446 31.89885074 32.55746621 C28.10355961 32.55981601 24.30855618 32.56876709 20.5133419 32.59392738 C16.94194762 32.61722184 13.37103021 32.62143619 9.79957962 32.611166 C7.86841498 32.61043526 5.93727448 32.62951649 4.00621033 32.64923096 C-2.41105837 32.61070567 -6.57916077 32.5712408 -11.40118408 28.14044189 C-15.70345998 23.37305509 -16.76400911 19.70296895 -16.68243408 13.42169189 C-16.0929902 8.64064703 -13.25297612 5.89083012 -9.77618408 2.82794189 C-6.20336786 0.28936195 -4.35338166 0.01294145 0 0 Z " fill="#D68D0B" transform="translate(192.40118408203125,415.85955810546875)"/>
<path d="M0 0 C1.21673904 -0.00990463 2.43347809 -0.01980927 3.68708801 -0.03001404 C5.02215678 -0.02577657 6.35722456 -0.02121877 7.69229126 -0.01637268 C9.10875486 -0.02207962 10.52521386 -0.02904513 11.94166565 -0.03717041 C15.77856856 -0.05508308 19.61524253 -0.05393685 23.45217466 -0.04822803 C26.66029709 -0.04513288 29.86837576 -0.05123236 33.07649195 -0.05726677 C40.64816927 -0.07130468 48.21973374 -0.06975734 55.79141235 -0.05836487 C63.59065937 -0.04688895 71.3895623 -0.06095196 79.18876398 -0.08776134 C85.89556079 -0.10994853 92.60224983 -0.1165488 99.30908072 -0.11068493 C103.31003346 -0.10732079 107.31076575 -0.10969389 111.31168747 -0.12693596 C115.07604572 -0.14245097 118.83989618 -0.13839971 122.6042347 -0.11963081 C124.63514632 -0.11421265 126.666081 -0.12842499 128.69694519 -0.14332581 C136.86853183 -0.07758472 142.48697423 0.70601932 148.88613892 6.1337738 C149.34117798 6.69193787 149.79621704 7.25010193 150.26504517 7.82518005 C150.7381311 8.38076599 151.21121704 8.93635193 151.69863892 9.5087738 C152.82754517 11.38768005 152.82754517 11.38768005 153.82754517 16.38768005 C96.40754517 16.38768005 38.98754517 16.38768005 -20.17245483 16.38768005 C-19.23229175 11.68686465 -18.93670497 10.58584246 -15.98495483 7.26268005 C-15.41390015 6.60010193 -14.84284546 5.9375238 -14.25448608 5.25486755 C-9.91266501 1.3610768 -5.76370028 0.01329575 0 0 Z " fill="#F69F13" transform="translate(189.17245483398438,463.61231994628906)"/>
<path d="M0 0 C5.28 0 10.56 0 16 0 C16.04898438 1.25296875 16.09796875 2.5059375 16.1484375 3.796875 C16.22348583 5.44793821 16.29903277 7.09897881 16.375 8.75 C16.4059375 9.575 16.436875 10.4 16.46875 11.25 C16.52675781 12.44882812 16.52675781 12.44882812 16.5859375 13.671875 C16.6173584 14.4050293 16.6487793 15.13818359 16.68115234 15.89355469 C17.04357812 18.2878959 17.73647048 19.93995853 19 22 C21.29308963 23.14654482 22.79909656 23.19729117 25.3515625 23.31640625 C26.20234375 23.35830078 27.053125 23.40019531 27.9296875 23.44335938 C28.81914062 23.48267578 29.70859375 23.52199219 30.625 23.5625 C31.5221875 23.60568359 32.419375 23.64886719 33.34375 23.69335938 C35.56231239 23.79956715 37.78113565 23.90029959 40 24 C40 29.28 40 34.56 40 40 C38.01226562 40.03867188 38.01226562 40.03867188 35.984375 40.078125 C34.23955056 40.13440966 32.49476017 40.19175692 30.75 40.25 C29.87730469 40.26417969 29.00460937 40.27835938 28.10546875 40.29296875 C26.83896484 40.34130859 26.83896484 40.34130859 25.546875 40.390625 C24.77182617 40.41157227 23.99677734 40.43251953 23.19824219 40.45410156 C19.97002501 41.25577789 18.90121469 42.25403624 17 45 C16.39598807 48.04381894 16.39507752 51.0446618 16.390625 54.140625 C16.37408875 55.02280701 16.35755249 55.90498901 16.34051514 56.81390381 C16.29200806 59.6260065 16.27065845 62.43756832 16.25 65.25 C16.22184254 67.15888142 16.19191543 69.06773761 16.16015625 70.9765625 C16.08624846 75.65099714 16.03669045 80.32513106 16 85 C11.76143786 86.83210576 8.65062836 87.33822752 4 87 C1.78515625 85.984375 1.78515625 85.984375 0 85 C-0.01981934 83.8039917 -0.03963867 82.6079834 -0.06005859 81.37573242 C-0.13608272 76.94192306 -0.22480497 72.50844326 -0.31738281 68.07495117 C-0.35568577 66.15542096 -0.39053633 64.23581865 -0.421875 62.31616211 C-0.46749702 59.5581687 -0.5254958 56.80067223 -0.5859375 54.04296875 C-0.59748871 53.18350143 -0.60903992 52.32403412 -0.62094116 51.43852234 C-0.64081085 50.63791885 -0.66068054 49.83731537 -0.68115234 49.01245117 C-0.69447601 48.3085173 -0.70779968 47.60458344 -0.7215271 46.87931824 C-0.91244185 44.66902536 -0.91244185 44.66902536 -3 42 C-5.65918166 41.11360611 -7.48064641 40.82010975 -10.23046875 40.68359375 C-11.03291016 40.64169922 -11.83535156 40.59980469 -12.66210938 40.55664062 C-13.49548828 40.51732422 -14.32886719 40.47800781 -15.1875 40.4375 C-16.4549707 40.37272461 -16.4549707 40.37272461 -17.74804688 40.30664062 C-19.83184433 40.20068482 -21.91590103 40.0998498 -24 40 C-24 34.72 -24 29.44 -24 24 C-22.74703125 23.95101562 -21.4940625 23.90203125 -20.203125 23.8515625 C-18.55206179 23.77651417 -16.90102119 23.70096723 -15.25 23.625 C-14.425 23.5940625 -13.6 23.563125 -12.75 23.53125 C-11.55117187 23.47324219 -11.55117187 23.47324219 -10.328125 23.4140625 C-9.22839355 23.36693115 -9.22839355 23.36693115 -8.10644531 23.31884766 C-5.68519718 22.95234904 -4.05485874 22.33201878 -2 21 C-1.11360611 18.34081834 -0.82010975 16.51935359 -0.68359375 13.76953125 C-0.64169922 12.96708984 -0.59980469 12.16464844 -0.55664062 11.33789062 C-0.51732422 10.50451172 -0.47800781 9.67113281 -0.4375 8.8125 C-0.39431641 7.96751953 -0.35113281 7.12253906 -0.30664062 6.25195312 C-0.20068482 4.16815567 -0.0998498 2.08409897 0 0 Z " fill="#F69F13" transform="translate(248,32)"/>
<path d="M0 0 C3.7229703 2.6592645 6.55543557 5.73587115 8.625 9.875 C9.87999566 18.31047718 7.47006039 24.75430896 4.1328125 32.296875 C1.47492506 38.60419338 0.48423694 44.0011045 -0.375 50.875 C-5.985 50.875 -11.595 50.875 -17.375 50.875 C-17.478125 48.60625 -17.58125 46.3375 -17.6875 44 C-18.1270441 36.40345972 -19.8617971 29.85711289 -22.5625 22.75 C-24.59313476 15.56467701 -23.06922314 10.08262229 -20.73828125 3.1953125 C-19.375 0.875 -19.375 0.875 -17.0703125 -0.42578125 C-11.35292494 -1.90898759 -5.60160197 -1.86720066 0 0 Z " fill="#F49E13" transform="translate(281.375,133.125)"/>
<path d="M0 0 C0.66569504 -0.00554901 1.33139008 -0.01109802 2.01725769 -0.01681519 C4.20691044 -0.02857861 6.39447797 -0.00437471 8.58398438 0.02148438 C10.11185614 0.02319649 11.63973084 0.02312877 13.16760254 0.0213623 C16.36543997 0.02301365 19.56257476 0.04167599 22.76025391 0.07324219 C26.85265379 0.1129199 30.94413402 0.11728643 35.03668976 0.10977936 C38.19037249 0.1067051 41.3438497 0.11884625 44.4974823 0.13591003 C46.00610565 0.14292529 47.5147523 0.14606636 49.02339172 0.1452179 C51.13450962 0.14702221 53.24453978 0.16845545 55.35546875 0.1953125 C57.15485901 0.20794128 57.15485901 0.20794128 58.99060059 0.2208252 C62.47938538 0.65256382 64.38053785 1.52169287 67.17773438 3.61523438 C68.58231174 6.42438911 68.42668595 8.50333972 68.17773438 11.61523438 C66.39789033 14.75115008 65.65465231 15.45626173 62.17773438 16.61523438 C59.98138324 16.72994826 57.78173889 16.78461539 55.58251953 16.80810547 C54.91711655 16.81628296 54.25171356 16.82446045 53.56614685 16.83288574 C51.36637258 16.85767791 49.16666249 16.87423814 46.96679688 16.88867188 C46.21454205 16.89399555 45.46228722 16.89931923 44.68723679 16.90480423 C40.70686615 16.93150667 36.72652659 16.95089235 32.74609375 16.96533203 C29.45381955 16.97868118 26.16216371 17.00655447 22.87011719 17.04736328 C18.89194295 17.09667402 14.9143303 17.12145046 10.93586349 17.12855911 C9.42158246 17.13527098 7.90731392 17.15049166 6.39320755 17.17444992 C4.27205411 17.20610378 2.15306628 17.20614005 0.03173828 17.19873047 C-1.77670059 17.21086075 -1.77670059 17.21086075 -3.62167358 17.22323608 C-7.75547101 16.43795765 -9.23531615 14.86445309 -11.82226562 11.61523438 C-12.44726562 8.61523438 -12.44726562 8.61523438 -11.82226562 5.61523438 C-8.14529699 1.00473595 -5.84277586 -0.01000643 0 0 Z " fill="#D58C0B" transform="translate(227.822265625,199.384765625)"/>
<path d="M0 0 C1.09570312 0.00902344 2.19140625 0.01804688 3.3203125 0.02734375 C4.16335937 0.03894531 5.00640625 0.05054688 5.875 0.0625 C7.27199592 2.85649184 6.38592503 4.06199003 5.4375 7 C3.03868572 15.57994502 2.8194 22.04977044 6.375 30.3125 C9.61297277 37.8920926 9.25557061 43.91828891 8.875 52.0625 C3.265 52.0625 -2.345 52.0625 -8.125 52.0625 C-8.310625 50.45375 -8.49625 48.845 -8.6875 47.1875 C-9.61602501 41.37562123 -11.49494836 36.38713035 -13.75 31 C-16.47760754 24.3560407 -18.75250314 18.33459737 -17.125 11.0625 C-13.40013927 3.47482073 -8.25055537 -0.08777187 0 0 Z " fill="#F49E13" transform="translate(239.125,131.9375)"/>
<path d="M0 0 C4.64963504 2.29927007 4.64963504 2.29927007 6 5 C6.29123466 8.34919863 6.36462337 10.35756835 4.6875 13.3125 C1.52592843 16.47407157 -2.11841691 16.24837396 -6.375 16.375 C-10.79028114 16.3356218 -12.53327074 16.29941123 -16.3125 13.875 C-18.32483711 10.44657382 -18.81252952 8.9001417 -18 5 C-14.0594899 -1.71346165 -6.95616502 -1.03309382 0 0 Z " fill="#060400" transform="translate(250,336)"/>
</svg>
