<svg width="16" height="20" viewBox="0 0 16 20" fill="none" xmlns="http://www.w3.org/2000/svg">
<path d="M10.4997 15.8332C10.4997 17.2139 9.3805 18.3332 7.99975 18.3332C6.61908 18.3332 5.49976 17.2139 5.49976 15.8332M9.49683 5.19864C9.85975 4.8237 10.0831 4.31285 10.0831 3.74984C10.0831 2.59925 9.15033 1.6665 7.99975 1.6665C6.84916 1.6665 5.91643 2.59925 5.91643 3.74984C5.91643 4.31285 6.13976 4.8237 6.50266 5.19864M12.9997 9.33317C12.9997 8.1839 12.473 7.0817 11.5353 6.26904C10.5976 5.45639 9.32583 4.99984 7.99975 4.99984C6.67366 4.99984 5.40191 5.45639 4.46423 6.26904C3.52655 7.0817 2.99976 8.1839 2.99976 9.33317C2.99976 11.2347 2.5282 12.6253 1.93981 13.6204C1.26921 14.7545 0.933913 15.3216 0.947155 15.457C0.962296 15.612 0.990196 15.6609 1.11588 15.7528C1.22574 15.8332 1.77769 15.8332 2.88159 15.8332H13.1179C14.2218 15.8332 14.7738 15.8332 14.8837 15.7528C15.0093 15.6609 15.0372 15.612 15.0524 15.457C15.0656 15.3216 14.7303 14.7545 14.0597 13.6204C13.4713 12.6253 12.9997 11.2347 12.9997 9.33317Z" stroke="#94A3B8" stroke-width="1.5" stroke-linecap="round" stroke-linejoin="round"/>
</svg>
