<svg width="22" height="22" viewBox="0 0 22 22" fill="none" xmlns="http://www.w3.org/2000/svg">
<mask id="path-1-outside-1_253_669" maskUnits="userSpaceOnUse" x="0" y="0.000976562" width="22" height="22" fill="black">
<rect fill="white" y="0.000976562" width="22" height="22"/>
<path d="M20.7383 20.9992H1.26172C1.11738 20.9992 1.00174 20.8827 1 20.7383V19.695C1 18.975 1.5843 18.3907 2.30511 18.3907H2.39119V17.2604C2.39292 17.2126 2.4051 17.1656 2.43031 17.1256C3.26068 15.7518 3.67804 13.9172 3.77105 12.3043H3.69628C3.44326 12.3043 3.19979 12.2035 3.01981 12.0244C2.84069 11.8453 2.73897 11.6018 2.73897 11.3479C2.74071 11.094 2.8407 10.8505 3.01981 10.6714C3.19892 10.4923 3.44237 10.3915 3.69628 10.3915C3.31369 9.8828 3.08676 9.25069 3.08676 8.56554C3.08676 6.88568 4.45186 5.5223 6.13089 5.5223C6.5039 5.5223 6.86125 5.58925 7.19079 5.71272C7.29513 5.64925 7.40903 5.59969 7.52988 5.56665L6.22912 1.33835C6.2039 1.25922 6.21955 1.17314 6.26825 1.10705C6.31868 1.0401 6.39519 1.00098 6.47866 1.00098H15.5213C15.6048 1.00098 15.6813 1.0401 15.7318 1.10705C15.7804 1.17313 15.7961 1.25921 15.7709 1.33835L14.4701 5.56665C14.591 5.59969 14.7049 5.64838 14.8092 5.71272C15.1388 5.58925 15.4961 5.5223 15.8691 5.5223C17.5481 5.5223 18.9132 6.88566 18.9132 8.56554C18.9132 9.25069 18.6863 9.88282 18.3037 10.3915C18.5567 10.3915 18.8002 10.4923 18.9802 10.6714C19.1593 10.8505 19.261 11.094 19.261 11.3479C19.2593 11.6018 19.1593 11.8453 18.9802 12.0244C18.8011 12.2035 18.5576 12.3043 18.3037 12.3043H18.2289C18.322 13.9164 18.7393 15.7518 19.5697 17.1256C19.5949 17.1656 19.6071 17.2126 19.6088 17.2604V18.3907H19.6949C20.4157 18.3907 21 18.975 21 19.695V20.7383C20.9983 20.8827 20.8835 20.9992 20.7383 20.9992ZM4.47791 18.9124H2.30506C1.87206 18.9124 1.5234 19.2628 1.5234 19.695V20.4775H4.47782L4.47791 18.9124ZM2.91284 17.5212L2.91458 18.3907H4.49879C4.55183 18.0664 4.69877 17.763 4.92572 17.5212H2.91284ZM3.09891 16.9995H6.21694V15.1736C6.21868 15.1258 6.23085 15.0788 6.25607 15.0389C6.83776 14.0772 7.20901 13.1938 7.45248 12.3043H4.29283C4.20675 13.8538 3.82929 15.603 3.09891 16.9995ZM4.39271 10.3913H7.80277C7.87929 9.68703 7.91668 8.94536 7.94711 8.1307H7.86886C7.14805 8.1307 6.56375 7.54641 6.56375 6.82647C6.56549 6.56822 6.63853 6.32825 6.76808 6.12567C6.56462 6.07263 6.35073 6.04393 6.12987 6.04393C4.73869 6.04393 3.60749 7.17426 3.60749 8.56542C3.60749 9.28363 3.90921 9.93225 4.39176 10.3913L4.39271 10.3913ZM7.73667 10.913H3.69534C3.5797 10.913 3.47015 10.9591 3.38754 11.04C3.30581 11.1217 3.2606 11.2321 3.25973 11.3478C3.25973 11.4634 3.30581 11.5738 3.38754 11.6556C3.46928 11.7373 3.5797 11.7825 3.69534 11.7825H7.57929C7.6419 11.4956 7.69319 11.2069 7.73667 10.913ZM7.86883 6.04389C7.68624 6.04389 7.51843 6.10649 7.38625 6.21083C7.38452 6.21083 7.38451 6.2117 7.38451 6.2117C7.20192 6.35516 7.08716 6.57688 7.0854 6.82642C7.0854 7.25856 7.4358 7.60896 7.8688 7.60896H14.1291C14.5621 7.60896 14.9108 7.25856 14.9108 6.82642C14.9108 6.39429 14.5613 6.04389 14.1291 6.04389L7.86883 6.04389ZM8.65049 1.52266H6.83065L8.0601 5.52236H13.936L15.1655 1.52266H13.3447V3.69638C13.3447 3.84071 13.2282 3.95723 13.0848 3.95723C12.9413 3.95723 12.823 3.84072 12.823 3.69638V1.52266H11.258V3.69638C11.258 3.84071 11.1415 3.95723 10.998 3.95723C10.8545 3.95723 10.7363 3.84072 10.7363 3.69638V1.52266H9.1712V3.69638C9.1712 3.84071 9.05468 3.95723 8.91121 3.95723C8.76775 3.95723 8.64949 3.84072 8.64949 3.69638V1.52266H8.65049ZM15.2291 6.1258C15.3587 6.32839 15.4326 6.56838 15.4326 6.8266C15.4326 7.54654 14.85 8.13084 14.1292 8.13084H14.0509C14.0814 8.94556 14.1188 9.68723 14.1953 10.3915H17.6053C18.0879 9.93236 18.3896 9.28372 18.3896 8.56553C18.3896 7.17435 17.2584 6.04404 15.8672 6.04404C15.6464 6.04404 15.4317 6.07276 15.2291 6.1258ZM14.4179 11.7827H18.3018C18.4175 11.7827 18.527 11.7375 18.6096 11.6557C18.6914 11.574 18.7366 11.4636 18.7375 11.3479C18.7375 11.2332 18.6914 11.1219 18.6096 11.0401C18.5279 10.9584 18.4175 10.9132 18.3018 10.9132H14.2605C14.304 11.2071 14.3553 11.4958 14.4179 11.7827ZM18.8993 16.9997C18.1689 15.6033 17.7915 13.8539 17.7055 12.3044H14.5458C14.7893 13.1939 15.1605 14.0773 15.7422 15.0389C15.7674 15.0789 15.7796 15.1259 15.7813 15.1737V16.9996L18.8993 16.9997ZM19.0845 17.5214H17.0725C17.2994 17.7631 17.4463 18.0666 17.4994 18.3909H19.0853L19.0836 17.5214H19.0845ZM17.5211 20.4776H20.4773V19.6951C20.4773 19.263 20.1269 18.9126 19.6939 18.9126H17.5211L17.5211 20.4776ZM5.00051 20.4776H16.9994V18.6517C16.9994 18.3517 16.8794 18.0639 16.6681 17.8527C16.4551 17.6405 16.1673 17.5214 15.8682 17.5214H6.1299C5.83079 17.5214 5.543 17.6405 5.32996 17.8527C5.11868 18.0648 4.99868 18.3517 4.99868 18.6517L5.00051 20.4776ZM13.5301 8.13084H8.46889C8.36977 10.7549 8.20196 12.6452 6.93165 14.9129H15.0675C13.7972 12.6445 13.6292 10.7549 13.5301 8.13084ZM6.73848 15.4344L6.74022 16.9995H15.2611V15.4344H6.73848Z"/>
</mask>
<path d="M20.7383 20.9992H1.26172C1.11738 20.9992 1.00174 20.8827 1 20.7383V19.695C1 18.975 1.5843 18.3907 2.30511 18.3907H2.39119V17.2604C2.39292 17.2126 2.4051 17.1656 2.43031 17.1256C3.26068 15.7518 3.67804 13.9172 3.77105 12.3043H3.69628C3.44326 12.3043 3.19979 12.2035 3.01981 12.0244C2.84069 11.8453 2.73897 11.6018 2.73897 11.3479C2.74071 11.094 2.8407 10.8505 3.01981 10.6714C3.19892 10.4923 3.44237 10.3915 3.69628 10.3915C3.31369 9.8828 3.08676 9.25069 3.08676 8.56554C3.08676 6.88568 4.45186 5.5223 6.13089 5.5223C6.5039 5.5223 6.86125 5.58925 7.19079 5.71272C7.29513 5.64925 7.40903 5.59969 7.52988 5.56665L6.22912 1.33835C6.2039 1.25922 6.21955 1.17314 6.26825 1.10705C6.31868 1.0401 6.39519 1.00098 6.47866 1.00098H15.5213C15.6048 1.00098 15.6813 1.0401 15.7318 1.10705C15.7804 1.17313 15.7961 1.25921 15.7709 1.33835L14.4701 5.56665C14.591 5.59969 14.7049 5.64838 14.8092 5.71272C15.1388 5.58925 15.4961 5.5223 15.8691 5.5223C17.5481 5.5223 18.9132 6.88566 18.9132 8.56554C18.9132 9.25069 18.6863 9.88282 18.3037 10.3915C18.5567 10.3915 18.8002 10.4923 18.9802 10.6714C19.1593 10.8505 19.261 11.094 19.261 11.3479C19.2593 11.6018 19.1593 11.8453 18.9802 12.0244C18.8011 12.2035 18.5576 12.3043 18.3037 12.3043H18.2289C18.322 13.9164 18.7393 15.7518 19.5697 17.1256C19.5949 17.1656 19.6071 17.2126 19.6088 17.2604V18.3907H19.6949C20.4157 18.3907 21 18.975 21 19.695V20.7383C20.9983 20.8827 20.8835 20.9992 20.7383 20.9992ZM4.47791 18.9124H2.30506C1.87206 18.9124 1.5234 19.2628 1.5234 19.695V20.4775H4.47782L4.47791 18.9124ZM2.91284 17.5212L2.91458 18.3907H4.49879C4.55183 18.0664 4.69877 17.763 4.92572 17.5212H2.91284ZM3.09891 16.9995H6.21694V15.1736C6.21868 15.1258 6.23085 15.0788 6.25607 15.0389C6.83776 14.0772 7.20901 13.1938 7.45248 12.3043H4.29283C4.20675 13.8538 3.82929 15.603 3.09891 16.9995ZM4.39271 10.3913H7.80277C7.87929 9.68703 7.91668 8.94536 7.94711 8.1307H7.86886C7.14805 8.1307 6.56375 7.54641 6.56375 6.82647C6.56549 6.56822 6.63853 6.32825 6.76808 6.12567C6.56462 6.07263 6.35073 6.04393 6.12987 6.04393C4.73869 6.04393 3.60749 7.17426 3.60749 8.56542C3.60749 9.28363 3.90921 9.93225 4.39176 10.3913L4.39271 10.3913ZM7.73667 10.913H3.69534C3.5797 10.913 3.47015 10.9591 3.38754 11.04C3.30581 11.1217 3.2606 11.2321 3.25973 11.3478C3.25973 11.4634 3.30581 11.5738 3.38754 11.6556C3.46928 11.7373 3.5797 11.7825 3.69534 11.7825H7.57929C7.6419 11.4956 7.69319 11.2069 7.73667 10.913ZM7.86883 6.04389C7.68624 6.04389 7.51843 6.10649 7.38625 6.21083C7.38452 6.21083 7.38451 6.2117 7.38451 6.2117C7.20192 6.35516 7.08716 6.57688 7.0854 6.82642C7.0854 7.25856 7.4358 7.60896 7.8688 7.60896H14.1291C14.5621 7.60896 14.9108 7.25856 14.9108 6.82642C14.9108 6.39429 14.5613 6.04389 14.1291 6.04389L7.86883 6.04389ZM8.65049 1.52266H6.83065L8.0601 5.52236H13.936L15.1655 1.52266H13.3447V3.69638C13.3447 3.84071 13.2282 3.95723 13.0848 3.95723C12.9413 3.95723 12.823 3.84072 12.823 3.69638V1.52266H11.258V3.69638C11.258 3.84071 11.1415 3.95723 10.998 3.95723C10.8545 3.95723 10.7363 3.84072 10.7363 3.69638V1.52266H9.1712V3.69638C9.1712 3.84071 9.05468 3.95723 8.91121 3.95723C8.76775 3.95723 8.64949 3.84072 8.64949 3.69638V1.52266H8.65049ZM15.2291 6.1258C15.3587 6.32839 15.4326 6.56838 15.4326 6.8266C15.4326 7.54654 14.85 8.13084 14.1292 8.13084H14.0509C14.0814 8.94556 14.1188 9.68723 14.1953 10.3915H17.6053C18.0879 9.93236 18.3896 9.28372 18.3896 8.56553C18.3896 7.17435 17.2584 6.04404 15.8672 6.04404C15.6464 6.04404 15.4317 6.07276 15.2291 6.1258ZM14.4179 11.7827H18.3018C18.4175 11.7827 18.527 11.7375 18.6096 11.6557C18.6914 11.574 18.7366 11.4636 18.7375 11.3479C18.7375 11.2332 18.6914 11.1219 18.6096 11.0401C18.5279 10.9584 18.4175 10.9132 18.3018 10.9132H14.2605C14.304 11.2071 14.3553 11.4958 14.4179 11.7827ZM18.8993 16.9997C18.1689 15.6033 17.7915 13.8539 17.7055 12.3044H14.5458C14.7893 13.1939 15.1605 14.0773 15.7422 15.0389C15.7674 15.0789 15.7796 15.1259 15.7813 15.1737V16.9996L18.8993 16.9997ZM19.0845 17.5214H17.0725C17.2994 17.7631 17.4463 18.0666 17.4994 18.3909H19.0853L19.0836 17.5214H19.0845ZM17.5211 20.4776H20.4773V19.6951C20.4773 19.263 20.1269 18.9126 19.6939 18.9126H17.5211L17.5211 20.4776ZM5.00051 20.4776H16.9994V18.6517C16.9994 18.3517 16.8794 18.0639 16.6681 17.8527C16.4551 17.6405 16.1673 17.5214 15.8682 17.5214H6.1299C5.83079 17.5214 5.543 17.6405 5.32996 17.8527C5.11868 18.0648 4.99868 18.3517 4.99868 18.6517L5.00051 20.4776ZM13.5301 8.13084H8.46889C8.36977 10.7549 8.20196 12.6452 6.93165 14.9129H15.0675C13.7972 12.6445 13.6292 10.7549 13.5301 8.13084ZM6.73848 15.4344L6.74022 16.9995H15.2611V15.4344H6.73848Z" fill="#94A3B8"/>
<path d="M20.7383 20.9992H1.26172C1.11738 20.9992 1.00174 20.8827 1 20.7383V19.695C1 18.975 1.5843 18.3907 2.30511 18.3907H2.39119V17.2604C2.39292 17.2126 2.4051 17.1656 2.43031 17.1256C3.26068 15.7518 3.67804 13.9172 3.77105 12.3043H3.69628C3.44326 12.3043 3.19979 12.2035 3.01981 12.0244C2.84069 11.8453 2.73897 11.6018 2.73897 11.3479C2.74071 11.094 2.8407 10.8505 3.01981 10.6714C3.19892 10.4923 3.44237 10.3915 3.69628 10.3915C3.31369 9.8828 3.08676 9.25069 3.08676 8.56554C3.08676 6.88568 4.45186 5.5223 6.13089 5.5223C6.5039 5.5223 6.86125 5.58925 7.19079 5.71272C7.29513 5.64925 7.40903 5.59969 7.52988 5.56665L6.22912 1.33835C6.2039 1.25922 6.21955 1.17314 6.26825 1.10705C6.31868 1.0401 6.39519 1.00098 6.47866 1.00098H15.5213C15.6048 1.00098 15.6813 1.0401 15.7318 1.10705C15.7804 1.17313 15.7961 1.25921 15.7709 1.33835L14.4701 5.56665C14.591 5.59969 14.7049 5.64838 14.8092 5.71272C15.1388 5.58925 15.4961 5.5223 15.8691 5.5223C17.5481 5.5223 18.9132 6.88566 18.9132 8.56554C18.9132 9.25069 18.6863 9.88282 18.3037 10.3915C18.5567 10.3915 18.8002 10.4923 18.9802 10.6714C19.1593 10.8505 19.261 11.094 19.261 11.3479C19.2593 11.6018 19.1593 11.8453 18.9802 12.0244C18.8011 12.2035 18.5576 12.3043 18.3037 12.3043H18.2289C18.322 13.9164 18.7393 15.7518 19.5697 17.1256C19.5949 17.1656 19.6071 17.2126 19.6088 17.2604V18.3907H19.6949C20.4157 18.3907 21 18.975 21 19.695V20.7383C20.9983 20.8827 20.8835 20.9992 20.7383 20.9992ZM4.47791 18.9124H2.30506C1.87206 18.9124 1.5234 19.2628 1.5234 19.695V20.4775H4.47782L4.47791 18.9124ZM2.91284 17.5212L2.91458 18.3907H4.49879C4.55183 18.0664 4.69877 17.763 4.92572 17.5212H2.91284ZM3.09891 16.9995H6.21694V15.1736C6.21868 15.1258 6.23085 15.0788 6.25607 15.0389C6.83776 14.0772 7.20901 13.1938 7.45248 12.3043H4.29283C4.20675 13.8538 3.82929 15.603 3.09891 16.9995ZM4.39271 10.3913H7.80277C7.87929 9.68703 7.91668 8.94536 7.94711 8.1307H7.86886C7.14805 8.1307 6.56375 7.54641 6.56375 6.82647C6.56549 6.56822 6.63853 6.32825 6.76808 6.12567C6.56462 6.07263 6.35073 6.04393 6.12987 6.04393C4.73869 6.04393 3.60749 7.17426 3.60749 8.56542C3.60749 9.28363 3.90921 9.93225 4.39176 10.3913L4.39271 10.3913ZM7.73667 10.913H3.69534C3.5797 10.913 3.47015 10.9591 3.38754 11.04C3.30581 11.1217 3.2606 11.2321 3.25973 11.3478C3.25973 11.4634 3.30581 11.5738 3.38754 11.6556C3.46928 11.7373 3.5797 11.7825 3.69534 11.7825H7.57929C7.6419 11.4956 7.69319 11.2069 7.73667 10.913ZM7.86883 6.04389C7.68624 6.04389 7.51843 6.10649 7.38625 6.21083C7.38452 6.21083 7.38451 6.2117 7.38451 6.2117C7.20192 6.35516 7.08716 6.57688 7.0854 6.82642C7.0854 7.25856 7.4358 7.60896 7.8688 7.60896H14.1291C14.5621 7.60896 14.9108 7.25856 14.9108 6.82642C14.9108 6.39429 14.5613 6.04389 14.1291 6.04389L7.86883 6.04389ZM8.65049 1.52266H6.83065L8.0601 5.52236H13.936L15.1655 1.52266H13.3447V3.69638C13.3447 3.84071 13.2282 3.95723 13.0848 3.95723C12.9413 3.95723 12.823 3.84072 12.823 3.69638V1.52266H11.258V3.69638C11.258 3.84071 11.1415 3.95723 10.998 3.95723C10.8545 3.95723 10.7363 3.84072 10.7363 3.69638V1.52266H9.1712V3.69638C9.1712 3.84071 9.05468 3.95723 8.91121 3.95723C8.76775 3.95723 8.64949 3.84072 8.64949 3.69638V1.52266H8.65049ZM15.2291 6.1258C15.3587 6.32839 15.4326 6.56838 15.4326 6.8266C15.4326 7.54654 14.85 8.13084 14.1292 8.13084H14.0509C14.0814 8.94556 14.1188 9.68723 14.1953 10.3915H17.6053C18.0879 9.93236 18.3896 9.28372 18.3896 8.56553C18.3896 7.17435 17.2584 6.04404 15.8672 6.04404C15.6464 6.04404 15.4317 6.07276 15.2291 6.1258ZM14.4179 11.7827H18.3018C18.4175 11.7827 18.527 11.7375 18.6096 11.6557C18.6914 11.574 18.7366 11.4636 18.7375 11.3479C18.7375 11.2332 18.6914 11.1219 18.6096 11.0401C18.5279 10.9584 18.4175 10.9132 18.3018 10.9132H14.2605C14.304 11.2071 14.3553 11.4958 14.4179 11.7827ZM18.8993 16.9997C18.1689 15.6033 17.7915 13.8539 17.7055 12.3044H14.5458C14.7893 13.1939 15.1605 14.0773 15.7422 15.0389C15.7674 15.0789 15.7796 15.1259 15.7813 15.1737V16.9996L18.8993 16.9997ZM19.0845 17.5214H17.0725C17.2994 17.7631 17.4463 18.0666 17.4994 18.3909H19.0853L19.0836 17.5214H19.0845ZM17.5211 20.4776H20.4773V19.6951C20.4773 19.263 20.1269 18.9126 19.6939 18.9126H17.5211L17.5211 20.4776ZM5.00051 20.4776H16.9994V18.6517C16.9994 18.3517 16.8794 18.0639 16.6681 17.8527C16.4551 17.6405 16.1673 17.5214 15.8682 17.5214H6.1299C5.83079 17.5214 5.543 17.6405 5.32996 17.8527C5.11868 18.0648 4.99868 18.3517 4.99868 18.6517L5.00051 20.4776ZM13.5301 8.13084H8.46889C8.36977 10.7549 8.20196 12.6452 6.93165 14.9129H15.0675C13.7972 12.6445 13.6292 10.7549 13.5301 8.13084ZM6.73848 15.4344L6.74022 16.9995H15.2611V15.4344H6.73848Z" stroke="#94A3B8" stroke-width="0.25" mask="url(#path-1-outside-1_253_669)"/>
</svg>
