<svg width="22" height="18" viewBox="0 0 22 18" fill="none" xmlns="http://www.w3.org/2000/svg">
<mask id="path-1-outside-1_253_647" maskUnits="userSpaceOnUse" x="0" y="-0.285156" width="22" height="18" fill="black">
<rect fill="white" y="-0.285156" width="22" height="18"/>
<path d="M20.4227 8.0199C18.9236 7.83654 18.3091 7.23547 18.2117 7.12994C18.1025 6.89471 17.4049 5.44034 15.9022 3.44845C14.1679 1.15067 9.75304 -0.262568 5.90784 1.52093C1.96074 3.35185 0.296994 7.79374 1.27289 10.6344C1.96339 12.646 1.89633 13.9484 1.83459 14.4144C1.81939 14.5271 1.84354 14.6362 1.89273 14.7301C2.11903 15.4716 2.98037 16.1335 4.55001 15.985L6.89083 15.6872C7.01606 15.6711 7.1055 15.5566 7.0894 15.4313C7.0733 15.3061 6.95971 15.2185 6.83359 15.2328L4.50009 15.5297C3.48222 15.6281 2.93302 15.3473 2.64055 15.0673C4.22101 15.3133 5.74593 15.1246 7.2961 14.7292C7.31756 14.799 7.56533 15.409 7.67086 15.6746C7.73079 15.824 7.87569 15.9358 8.06443 15.9296C8.33009 16.4886 9.00896 16.9644 10.068 16.9644C10.7424 16.9644 11.5367 16.7784 12.4436 16.4063C12.7602 16.7614 13.4239 17.4564 13.8461 17.2462C14.2459 17.0485 14.4185 16.2963 13.0241 12.2247C14.6708 11.2793 16.2307 10.3258 16.5437 10.1747C16.9015 10.0029 19.2502 9.39473 20.2852 8.97701C20.083 9.34909 19.6904 9.81419 18.9489 9.98952C16.7557 10.5083 15.7386 11.1916 13.9526 12.6102C13.8533 12.6889 13.8372 12.8329 13.916 12.9321C13.9947 13.0314 14.1387 13.0475 14.2379 12.9697C15.9562 11.595 16.9632 10.9304 19.0554 10.4359C20.4722 10.1004 20.846 8.91888 20.9203 8.6094C20.9829 8.53426 21.0053 8.45913 20.999 8.37774C20.9731 8.08705 20.5875 8.03963 20.423 8.01996L20.4227 8.0199ZM10.0526 11.8427C9.81555 11.9858 9.58121 12.0529 9.34328 12.0421L9.19749 11.4921C9.32361 11.45 9.78514 11.2944 9.89067 11.2577L10.0526 11.8427ZM2.29417 13.0824C2.27628 12.8954 2.25303 12.6978 2.21815 12.4813C2.92207 12.3042 4.34781 11.9214 5.62417 11.5493C7.61162 10.9169 13.751 9.23091 17.5756 6.8839C17.699 7.11735 17.7724 7.2712 17.7974 7.32487C14.055 9.64944 6.52658 11.9606 2.29417 13.0824ZM7.12604 12.6986L6.97309 12.2103C7.21102 12.1361 7.45071 12.0618 7.6967 11.9822L7.83713 12.4992C7.60009 12.6432 7.36664 12.7103 7.12604 12.6986ZM4.90783 13.3543L4.75756 12.874C4.92214 12.8257 4.87384 12.8418 5.46237 12.6682L5.61979 13.1575C5.38367 13.2979 5.15022 13.3641 4.90783 13.3543ZM4.24952 10.8802L4.29245 10.6816C4.43198 10.6691 4.62428 10.6333 4.80676 10.5394C5.03484 10.7952 4.9123 10.5975 5.07061 11.1217C4.82643 11.1924 4.58939 11.2603 4.3622 11.3247L4.25039 10.9133C4.2495 10.9088 4.25131 10.8847 4.24952 10.8802ZM6.50709 10.026C6.64752 10.0144 6.84071 9.97948 7.02407 9.88467L7.16092 10.0349C7.17523 10.0653 7.18865 10.0931 7.17434 10.0627L7.3094 10.5644C6.75395 10.738 6.69313 10.7532 6.60548 10.78C6.43017 10.1253 6.44448 10.3131 6.50709 10.026ZM8.68058 9.57071L8.72351 9.37036C8.86394 9.35873 9.05624 9.32385 9.23871 9.22993C9.44801 9.48307 9.33978 9.23798 9.51419 9.85515C9.18325 9.96696 9.32905 9.92045 8.81563 10.0868L8.68058 9.57071ZM15.5364 3.72471C16.1097 4.48409 16.5641 5.16656 16.912 5.73094L14.7305 6.83914C14.2037 7.10658 13.5597 6.91606 13.2636 6.40713L12.7681 5.55653C12.7117 5.45993 12.701 5.34454 12.7386 5.2399C12.8405 4.95189 13.1008 5.06638 13.2395 4.74618C13.3692 4.44565 13.1652 4.24976 12.9997 3.76946C12.8951 3.51543 13.0257 3.22653 13.2842 3.13709L14.4899 2.71582C14.9156 3.03066 15.2707 3.37321 15.5364 3.72471ZM11.4675 1.36786L10.7277 1.47788C10.4737 1.51634 10.2501 1.6505 10.0972 1.85711C9.76266 2.31149 9.98 2.73993 9.99789 3.07712C10.0337 3.31056 9.89592 3.5315 9.67052 3.60216L8.71704 3.9018C8.50148 3.97067 8.26623 3.84992 8.19469 3.63435L8.17949 3.58963C8.08647 3.30788 7.78057 3.15941 7.50062 3.25959C6.79132 3.49213 6.68489 3.61736 6.50959 3.52971C6.32891 3.43937 6.39063 3.33204 5.96398 2.00649C7.74569 1.14158 9.64457 0.961792 11.4675 1.36786ZM3.91398 3.43939L4.72075 4.71218C4.81288 4.85797 4.73954 5.04939 4.57407 5.09679L3.53115 5.39553C3.24403 5.47782 3.08215 5.78015 3.17248 6.06369C3.51058 7.20321 3.51862 7.03059 3.46316 7.13344L1.63582 7.39461C1.9605 5.99838 2.72884 4.57694 3.91398 3.43939ZM1.70561 10.4857C1.43906 9.71021 1.39166 8.80412 1.54193 7.8694L3.55262 7.5805C3.84598 7.50536 4.01236 7.19946 3.92203 6.91504L3.60897 5.9249C3.59645 5.88644 3.6197 5.8453 3.65727 5.83457L4.70019 5.53582C5.15993 5.40523 5.36296 4.86945 5.10715 4.46607L4.25474 3.12083C4.6465 2.78542 5.08121 2.48489 5.55258 2.22102L5.93719 3.49917C6.05525 3.89182 6.48101 4.11365 6.87725 3.97143L7.65719 3.68878C7.69476 3.67536 7.73412 3.69594 7.74574 3.73171L7.76095 3.77644C7.91121 4.23171 8.40495 4.47946 8.85573 4.33725L9.80921 4.03761C10.252 3.89897 10.5221 3.46517 10.4523 3.00632C10.4201 2.61814 10.2788 2.38288 10.4675 2.12709C10.5471 2.01887 10.6643 1.9491 10.7967 1.92942L12.5194 1.67272C13.0676 1.87039 13.5712 2.11547 14.0184 2.39274L13.1338 2.70133C12.624 2.87932 12.3736 3.44639 12.5775 3.94014L12.8208 4.53046L13.0328 4.4437L12.7993 4.58055C12.3154 4.76391 12.1142 5.33903 12.3736 5.78357L12.8691 6.63417C13.2868 7.3524 14.1956 7.62253 14.9397 7.24419L17.1508 6.12078C17.2268 6.24869 17.2948 6.36854 17.3574 6.47856C15.6857 7.50717 13.2573 8.56529 9.94954 9.70392C9.84667 9.37834 9.8583 9.22987 9.7152 9.06799L9.44776 8.77462C9.36547 8.68428 9.22593 8.67444 9.13202 8.75315C8.91199 8.93651 8.55779 8.91505 8.55601 8.91415C8.44152 8.90879 8.33866 8.98302 8.31451 9.09483L8.23669 9.46424C8.18839 9.65565 8.25547 9.72362 8.3798 10.2245C8.22238 10.2746 7.8655 10.3882 7.74922 10.4249C7.62132 9.99374 7.63563 9.8739 7.50236 9.72451L7.23492 9.43115C7.15263 9.34081 7.01488 9.33097 6.92007 9.40879C6.69647 9.59304 6.34495 9.57068 6.34317 9.57068C6.22689 9.56353 6.12671 9.63776 6.10167 9.74867C6.05247 10.0286 5.97197 10.1628 6.02385 10.3739L6.16875 10.9079L5.53996 11.0948C5.42279 10.6959 5.41295 10.5081 5.28593 10.3828L5.01849 10.085C4.9362 9.99374 4.79577 9.98301 4.70186 10.0617C4.48093 10.246 4.12584 10.2272 4.12406 10.2263C4.00957 10.2182 3.9085 10.2952 3.88434 10.407L3.80563 10.7737C3.75644 10.9678 3.8262 11.0403 3.95053 11.5456C3.4076 11.6941 2.67953 11.8909 2.13392 12.0286C2.03553 11.5689 1.9015 11.0581 1.70561 10.4857ZM7.73777 14.6118C9.19124 14.2102 9.4077 14.1673 10.7932 13.4518L11.109 14.2469L8.07778 15.4598L7.73777 14.6118ZM9.1465 16.3345C8.75653 16.1646 8.57406 15.9114 8.50251 15.7836L11.1705 14.7156C11.4702 15.1637 11.8002 15.6279 12.1303 16.0376C10.5435 16.6601 9.63216 16.5474 9.1465 16.3345ZM13.6553 16.8318C13.3905 16.839 12.3995 15.729 11.5292 14.4276C11.5766 14.3185 11.5829 14.1915 11.5354 14.0725L11.2009 13.2371C11.658 12.9938 12.1383 12.7272 12.6186 12.4553C13.9102 16.2451 13.6902 16.7755 13.6553 16.8318ZM16.3458 9.76219C15.6713 10.0851 10.369 13.4221 8.76709 13.8462C8.59446 13.8918 8.40036 13.9482 8.1875 14.009C6.78591 14.4133 4.66882 15.0251 2.3344 14.5492C2.22528 14.5278 2.35319 14.4151 2.32367 13.5484C3.28608 13.2943 3.68947 13.1763 4.31648 13.0001L4.49089 13.5564C4.52846 13.6933 4.64742 13.7925 4.78336 13.8042C5.2127 13.848 5.58478 13.729 5.94524 13.492C6.06688 13.3999 6.12055 13.2461 6.07851 13.0904L5.90141 12.5367C6.05973 12.4893 6.41661 12.3811 6.53556 12.3453L6.70998 12.8999C6.74754 13.0367 6.86561 13.136 6.9962 13.1476C7.40764 13.1942 7.79226 13.0806 8.14287 12.848C8.27703 12.7648 8.33875 12.6029 8.29671 12.4446L8.13392 11.8418C8.29313 11.7899 8.71351 11.653 8.76361 11.6369L8.92371 12.2443C8.96039 12.3802 9.07845 12.4795 9.20993 12.492C9.63212 12.5403 10.0096 12.4214 10.3664 12.1879C10.4952 12.102 10.5561 11.9375 10.514 11.7908L10.3253 11.1083C13.8252 9.8847 16.3707 8.7613 18.0917 7.68351C18.1025 7.67635 18.1087 7.66651 18.1186 7.65846C18.4611 7.92412 19.1427 8.31588 20.3189 8.46794C19.5076 8.83913 16.7252 9.57974 16.3458 9.76219Z"/>
</mask>
<path d="M20.4227 8.0199C18.9236 7.83654 18.3091 7.23547 18.2117 7.12994C18.1025 6.89471 17.4049 5.44034 15.9022 3.44845C14.1679 1.15067 9.75304 -0.262568 5.90784 1.52093C1.96074 3.35185 0.296994 7.79374 1.27289 10.6344C1.96339 12.646 1.89633 13.9484 1.83459 14.4144C1.81939 14.5271 1.84354 14.6362 1.89273 14.7301C2.11903 15.4716 2.98037 16.1335 4.55001 15.985L6.89083 15.6872C7.01606 15.6711 7.1055 15.5566 7.0894 15.4313C7.0733 15.3061 6.95971 15.2185 6.83359 15.2328L4.50009 15.5297C3.48222 15.6281 2.93302 15.3473 2.64055 15.0673C4.22101 15.3133 5.74593 15.1246 7.2961 14.7292C7.31756 14.799 7.56533 15.409 7.67086 15.6746C7.73079 15.824 7.87569 15.9358 8.06443 15.9296C8.33009 16.4886 9.00896 16.9644 10.068 16.9644C10.7424 16.9644 11.5367 16.7784 12.4436 16.4063C12.7602 16.7614 13.4239 17.4564 13.8461 17.2462C14.2459 17.0485 14.4185 16.2963 13.0241 12.2247C14.6708 11.2793 16.2307 10.3258 16.5437 10.1747C16.9015 10.0029 19.2502 9.39473 20.2852 8.97701C20.083 9.34909 19.6904 9.81419 18.9489 9.98952C16.7557 10.5083 15.7386 11.1916 13.9526 12.6102C13.8533 12.6889 13.8372 12.8329 13.916 12.9321C13.9947 13.0314 14.1387 13.0475 14.2379 12.9697C15.9562 11.595 16.9632 10.9304 19.0554 10.4359C20.4722 10.1004 20.846 8.91888 20.9203 8.6094C20.9829 8.53426 21.0053 8.45913 20.999 8.37774C20.9731 8.08705 20.5875 8.03963 20.423 8.01996L20.4227 8.0199ZM10.0526 11.8427C9.81555 11.9858 9.58121 12.0529 9.34328 12.0421L9.19749 11.4921C9.32361 11.45 9.78514 11.2944 9.89067 11.2577L10.0526 11.8427ZM2.29417 13.0824C2.27628 12.8954 2.25303 12.6978 2.21815 12.4813C2.92207 12.3042 4.34781 11.9214 5.62417 11.5493C7.61162 10.9169 13.751 9.23091 17.5756 6.8839C17.699 7.11735 17.7724 7.2712 17.7974 7.32487C14.055 9.64944 6.52658 11.9606 2.29417 13.0824ZM7.12604 12.6986L6.97309 12.2103C7.21102 12.1361 7.45071 12.0618 7.6967 11.9822L7.83713 12.4992C7.60009 12.6432 7.36664 12.7103 7.12604 12.6986ZM4.90783 13.3543L4.75756 12.874C4.92214 12.8257 4.87384 12.8418 5.46237 12.6682L5.61979 13.1575C5.38367 13.2979 5.15022 13.3641 4.90783 13.3543ZM4.24952 10.8802L4.29245 10.6816C4.43198 10.6691 4.62428 10.6333 4.80676 10.5394C5.03484 10.7952 4.9123 10.5975 5.07061 11.1217C4.82643 11.1924 4.58939 11.2603 4.3622 11.3247L4.25039 10.9133C4.2495 10.9088 4.25131 10.8847 4.24952 10.8802ZM6.50709 10.026C6.64752 10.0144 6.84071 9.97948 7.02407 9.88467L7.16092 10.0349C7.17523 10.0653 7.18865 10.0931 7.17434 10.0627L7.3094 10.5644C6.75395 10.738 6.69313 10.7532 6.60548 10.78C6.43017 10.1253 6.44448 10.3131 6.50709 10.026ZM8.68058 9.57071L8.72351 9.37036C8.86394 9.35873 9.05624 9.32385 9.23871 9.22993C9.44801 9.48307 9.33978 9.23798 9.51419 9.85515C9.18325 9.96696 9.32905 9.92045 8.81563 10.0868L8.68058 9.57071ZM15.5364 3.72471C16.1097 4.48409 16.5641 5.16656 16.912 5.73094L14.7305 6.83914C14.2037 7.10658 13.5597 6.91606 13.2636 6.40713L12.7681 5.55653C12.7117 5.45993 12.701 5.34454 12.7386 5.2399C12.8405 4.95189 13.1008 5.06638 13.2395 4.74618C13.3692 4.44565 13.1652 4.24976 12.9997 3.76946C12.8951 3.51543 13.0257 3.22653 13.2842 3.13709L14.4899 2.71582C14.9156 3.03066 15.2707 3.37321 15.5364 3.72471ZM11.4675 1.36786L10.7277 1.47788C10.4737 1.51634 10.2501 1.6505 10.0972 1.85711C9.76266 2.31149 9.98 2.73993 9.99789 3.07712C10.0337 3.31056 9.89592 3.5315 9.67052 3.60216L8.71704 3.9018C8.50148 3.97067 8.26623 3.84992 8.19469 3.63435L8.17949 3.58963C8.08647 3.30788 7.78057 3.15941 7.50062 3.25959C6.79132 3.49213 6.68489 3.61736 6.50959 3.52971C6.32891 3.43937 6.39063 3.33204 5.96398 2.00649C7.74569 1.14158 9.64457 0.961792 11.4675 1.36786ZM3.91398 3.43939L4.72075 4.71218C4.81288 4.85797 4.73954 5.04939 4.57407 5.09679L3.53115 5.39553C3.24403 5.47782 3.08215 5.78015 3.17248 6.06369C3.51058 7.20321 3.51862 7.03059 3.46316 7.13344L1.63582 7.39461C1.9605 5.99838 2.72884 4.57694 3.91398 3.43939ZM1.70561 10.4857C1.43906 9.71021 1.39166 8.80412 1.54193 7.8694L3.55262 7.5805C3.84598 7.50536 4.01236 7.19946 3.92203 6.91504L3.60897 5.9249C3.59645 5.88644 3.6197 5.8453 3.65727 5.83457L4.70019 5.53582C5.15993 5.40523 5.36296 4.86945 5.10715 4.46607L4.25474 3.12083C4.6465 2.78542 5.08121 2.48489 5.55258 2.22102L5.93719 3.49917C6.05525 3.89182 6.48101 4.11365 6.87725 3.97143L7.65719 3.68878C7.69476 3.67536 7.73412 3.69594 7.74574 3.73171L7.76095 3.77644C7.91121 4.23171 8.40495 4.47946 8.85573 4.33725L9.80921 4.03761C10.252 3.89897 10.5221 3.46517 10.4523 3.00632C10.4201 2.61814 10.2788 2.38288 10.4675 2.12709C10.5471 2.01887 10.6643 1.9491 10.7967 1.92942L12.5194 1.67272C13.0676 1.87039 13.5712 2.11547 14.0184 2.39274L13.1338 2.70133C12.624 2.87932 12.3736 3.44639 12.5775 3.94014L12.8208 4.53046L13.0328 4.4437L12.7993 4.58055C12.3154 4.76391 12.1142 5.33903 12.3736 5.78357L12.8691 6.63417C13.2868 7.3524 14.1956 7.62253 14.9397 7.24419L17.1508 6.12078C17.2268 6.24869 17.2948 6.36854 17.3574 6.47856C15.6857 7.50717 13.2573 8.56529 9.94954 9.70392C9.84667 9.37834 9.8583 9.22987 9.7152 9.06799L9.44776 8.77462C9.36547 8.68428 9.22593 8.67444 9.13202 8.75315C8.91199 8.93651 8.55779 8.91505 8.55601 8.91415C8.44152 8.90879 8.33866 8.98302 8.31451 9.09483L8.23669 9.46424C8.18839 9.65565 8.25547 9.72362 8.3798 10.2245C8.22238 10.2746 7.8655 10.3882 7.74922 10.4249C7.62132 9.99374 7.63563 9.8739 7.50236 9.72451L7.23492 9.43115C7.15263 9.34081 7.01488 9.33097 6.92007 9.40879C6.69647 9.59304 6.34495 9.57068 6.34317 9.57068C6.22689 9.56353 6.12671 9.63776 6.10167 9.74867C6.05247 10.0286 5.97197 10.1628 6.02385 10.3739L6.16875 10.9079L5.53996 11.0948C5.42279 10.6959 5.41295 10.5081 5.28593 10.3828L5.01849 10.085C4.9362 9.99374 4.79577 9.98301 4.70186 10.0617C4.48093 10.246 4.12584 10.2272 4.12406 10.2263C4.00957 10.2182 3.9085 10.2952 3.88434 10.407L3.80563 10.7737C3.75644 10.9678 3.8262 11.0403 3.95053 11.5456C3.4076 11.6941 2.67953 11.8909 2.13392 12.0286C2.03553 11.5689 1.9015 11.0581 1.70561 10.4857ZM7.73777 14.6118C9.19124 14.2102 9.4077 14.1673 10.7932 13.4518L11.109 14.2469L8.07778 15.4598L7.73777 14.6118ZM9.1465 16.3345C8.75653 16.1646 8.57406 15.9114 8.50251 15.7836L11.1705 14.7156C11.4702 15.1637 11.8002 15.6279 12.1303 16.0376C10.5435 16.6601 9.63216 16.5474 9.1465 16.3345ZM13.6553 16.8318C13.3905 16.839 12.3995 15.729 11.5292 14.4276C11.5766 14.3185 11.5829 14.1915 11.5354 14.0725L11.2009 13.2371C11.658 12.9938 12.1383 12.7272 12.6186 12.4553C13.9102 16.2451 13.6902 16.7755 13.6553 16.8318ZM16.3458 9.76219C15.6713 10.0851 10.369 13.4221 8.76709 13.8462C8.59446 13.8918 8.40036 13.9482 8.1875 14.009C6.78591 14.4133 4.66882 15.0251 2.3344 14.5492C2.22528 14.5278 2.35319 14.4151 2.32367 13.5484C3.28608 13.2943 3.68947 13.1763 4.31648 13.0001L4.49089 13.5564C4.52846 13.6933 4.64742 13.7925 4.78336 13.8042C5.2127 13.848 5.58478 13.729 5.94524 13.492C6.06688 13.3999 6.12055 13.2461 6.07851 13.0904L5.90141 12.5367C6.05973 12.4893 6.41661 12.3811 6.53556 12.3453L6.70998 12.8999C6.74754 13.0367 6.86561 13.136 6.9962 13.1476C7.40764 13.1942 7.79226 13.0806 8.14287 12.848C8.27703 12.7648 8.33875 12.6029 8.29671 12.4446L8.13392 11.8418C8.29313 11.7899 8.71351 11.653 8.76361 11.6369L8.92371 12.2443C8.96039 12.3802 9.07845 12.4795 9.20993 12.492C9.63212 12.5403 10.0096 12.4214 10.3664 12.1879C10.4952 12.102 10.5561 11.9375 10.514 11.7908L10.3253 11.1083C13.8252 9.8847 16.3707 8.7613 18.0917 7.68351C18.1025 7.67635 18.1087 7.66651 18.1186 7.65846C18.4611 7.92412 19.1427 8.31588 20.3189 8.46794C19.5076 8.83913 16.7252 9.57974 16.3458 9.76219Z" fill="#94A3B8"/>
<path d="M20.4227 8.0199C18.9236 7.83654 18.3091 7.23547 18.2117 7.12994C18.1025 6.89471 17.4049 5.44034 15.9022 3.44845C14.1679 1.15067 9.75304 -0.262568 5.90784 1.52093C1.96074 3.35185 0.296994 7.79374 1.27289 10.6344C1.96339 12.646 1.89633 13.9484 1.83459 14.4144C1.81939 14.5271 1.84354 14.6362 1.89273 14.7301C2.11903 15.4716 2.98037 16.1335 4.55001 15.985L6.89083 15.6872C7.01606 15.6711 7.1055 15.5566 7.0894 15.4313C7.0733 15.3061 6.95971 15.2185 6.83359 15.2328L4.50009 15.5297C3.48222 15.6281 2.93302 15.3473 2.64055 15.0673C4.22101 15.3133 5.74593 15.1246 7.2961 14.7292C7.31756 14.799 7.56533 15.409 7.67086 15.6746C7.73079 15.824 7.87569 15.9358 8.06443 15.9296C8.33009 16.4886 9.00896 16.9644 10.068 16.9644C10.7424 16.9644 11.5367 16.7784 12.4436 16.4063C12.7602 16.7614 13.4239 17.4564 13.8461 17.2462C14.2459 17.0485 14.4185 16.2963 13.0241 12.2247C14.6708 11.2793 16.2307 10.3258 16.5437 10.1747C16.9015 10.0029 19.2502 9.39473 20.2852 8.97701C20.083 9.34909 19.6904 9.81419 18.9489 9.98952C16.7557 10.5083 15.7386 11.1916 13.9526 12.6102C13.8533 12.6889 13.8372 12.8329 13.916 12.9321C13.9947 13.0314 14.1387 13.0475 14.2379 12.9697C15.9562 11.595 16.9632 10.9304 19.0554 10.4359C20.4722 10.1004 20.846 8.91888 20.9203 8.6094C20.9829 8.53426 21.0053 8.45913 20.999 8.37774C20.9731 8.08705 20.5875 8.03963 20.423 8.01996L20.4227 8.0199ZM10.0526 11.8427C9.81555 11.9858 9.58121 12.0529 9.34328 12.0421L9.19749 11.4921C9.32361 11.45 9.78514 11.2944 9.89067 11.2577L10.0526 11.8427ZM2.29417 13.0824C2.27628 12.8954 2.25303 12.6978 2.21815 12.4813C2.92207 12.3042 4.34781 11.9214 5.62417 11.5493C7.61162 10.9169 13.751 9.23091 17.5756 6.8839C17.699 7.11735 17.7724 7.2712 17.7974 7.32487C14.055 9.64944 6.52658 11.9606 2.29417 13.0824ZM7.12604 12.6986L6.97309 12.2103C7.21102 12.1361 7.45071 12.0618 7.6967 11.9822L7.83713 12.4992C7.60009 12.6432 7.36664 12.7103 7.12604 12.6986ZM4.90783 13.3543L4.75756 12.874C4.92214 12.8257 4.87384 12.8418 5.46237 12.6682L5.61979 13.1575C5.38367 13.2979 5.15022 13.3641 4.90783 13.3543ZM4.24952 10.8802L4.29245 10.6816C4.43198 10.6691 4.62428 10.6333 4.80676 10.5394C5.03484 10.7952 4.9123 10.5975 5.07061 11.1217C4.82643 11.1924 4.58939 11.2603 4.3622 11.3247L4.25039 10.9133C4.2495 10.9088 4.25131 10.8847 4.24952 10.8802ZM6.50709 10.026C6.64752 10.0144 6.84071 9.97948 7.02407 9.88467L7.16092 10.0349C7.17523 10.0653 7.18865 10.0931 7.17434 10.0627L7.3094 10.5644C6.75395 10.738 6.69313 10.7532 6.60548 10.78C6.43017 10.1253 6.44448 10.3131 6.50709 10.026ZM8.68058 9.57071L8.72351 9.37036C8.86394 9.35873 9.05624 9.32385 9.23871 9.22993C9.44801 9.48307 9.33978 9.23798 9.51419 9.85515C9.18325 9.96696 9.32905 9.92045 8.81563 10.0868L8.68058 9.57071ZM15.5364 3.72471C16.1097 4.48409 16.5641 5.16656 16.912 5.73094L14.7305 6.83914C14.2037 7.10658 13.5597 6.91606 13.2636 6.40713L12.7681 5.55653C12.7117 5.45993 12.701 5.34454 12.7386 5.2399C12.8405 4.95189 13.1008 5.06638 13.2395 4.74618C13.3692 4.44565 13.1652 4.24976 12.9997 3.76946C12.8951 3.51543 13.0257 3.22653 13.2842 3.13709L14.4899 2.71582C14.9156 3.03066 15.2707 3.37321 15.5364 3.72471ZM11.4675 1.36786L10.7277 1.47788C10.4737 1.51634 10.2501 1.6505 10.0972 1.85711C9.76266 2.31149 9.98 2.73993 9.99789 3.07712C10.0337 3.31056 9.89592 3.5315 9.67052 3.60216L8.71704 3.9018C8.50148 3.97067 8.26623 3.84992 8.19469 3.63435L8.17949 3.58963C8.08647 3.30788 7.78057 3.15941 7.50062 3.25959C6.79132 3.49213 6.68489 3.61736 6.50959 3.52971C6.32891 3.43937 6.39063 3.33204 5.96398 2.00649C7.74569 1.14158 9.64457 0.961792 11.4675 1.36786ZM3.91398 3.43939L4.72075 4.71218C4.81288 4.85797 4.73954 5.04939 4.57407 5.09679L3.53115 5.39553C3.24403 5.47782 3.08215 5.78015 3.17248 6.06369C3.51058 7.20321 3.51862 7.03059 3.46316 7.13344L1.63582 7.39461C1.9605 5.99838 2.72884 4.57694 3.91398 3.43939ZM1.70561 10.4857C1.43906 9.71021 1.39166 8.80412 1.54193 7.8694L3.55262 7.5805C3.84598 7.50536 4.01236 7.19946 3.92203 6.91504L3.60897 5.9249C3.59645 5.88644 3.6197 5.8453 3.65727 5.83457L4.70019 5.53582C5.15993 5.40523 5.36296 4.86945 5.10715 4.46607L4.25474 3.12083C4.6465 2.78542 5.08121 2.48489 5.55258 2.22102L5.93719 3.49917C6.05525 3.89182 6.48101 4.11365 6.87725 3.97143L7.65719 3.68878C7.69476 3.67536 7.73412 3.69594 7.74574 3.73171L7.76095 3.77644C7.91121 4.23171 8.40495 4.47946 8.85573 4.33725L9.80921 4.03761C10.252 3.89897 10.5221 3.46517 10.4523 3.00632C10.4201 2.61814 10.2788 2.38288 10.4675 2.12709C10.5471 2.01887 10.6643 1.9491 10.7967 1.92942L12.5194 1.67272C13.0676 1.87039 13.5712 2.11547 14.0184 2.39274L13.1338 2.70133C12.624 2.87932 12.3736 3.44639 12.5775 3.94014L12.8208 4.53046L13.0328 4.4437L12.7993 4.58055C12.3154 4.76391 12.1142 5.33903 12.3736 5.78357L12.8691 6.63417C13.2868 7.3524 14.1956 7.62253 14.9397 7.24419L17.1508 6.12078C17.2268 6.24869 17.2948 6.36854 17.3574 6.47856C15.6857 7.50717 13.2573 8.56529 9.94954 9.70392C9.84667 9.37834 9.8583 9.22987 9.7152 9.06799L9.44776 8.77462C9.36547 8.68428 9.22593 8.67444 9.13202 8.75315C8.91199 8.93651 8.55779 8.91505 8.55601 8.91415C8.44152 8.90879 8.33866 8.98302 8.31451 9.09483L8.23669 9.46424C8.18839 9.65565 8.25547 9.72362 8.3798 10.2245C8.22238 10.2746 7.8655 10.3882 7.74922 10.4249C7.62132 9.99374 7.63563 9.8739 7.50236 9.72451L7.23492 9.43115C7.15263 9.34081 7.01488 9.33097 6.92007 9.40879C6.69647 9.59304 6.34495 9.57068 6.34317 9.57068C6.22689 9.56353 6.12671 9.63776 6.10167 9.74867C6.05247 10.0286 5.97197 10.1628 6.02385 10.3739L6.16875 10.9079L5.53996 11.0948C5.42279 10.6959 5.41295 10.5081 5.28593 10.3828L5.01849 10.085C4.9362 9.99374 4.79577 9.98301 4.70186 10.0617C4.48093 10.246 4.12584 10.2272 4.12406 10.2263C4.00957 10.2182 3.9085 10.2952 3.88434 10.407L3.80563 10.7737C3.75644 10.9678 3.8262 11.0403 3.95053 11.5456C3.4076 11.6941 2.67953 11.8909 2.13392 12.0286C2.03553 11.5689 1.9015 11.0581 1.70561 10.4857ZM7.73777 14.6118C9.19124 14.2102 9.4077 14.1673 10.7932 13.4518L11.109 14.2469L8.07778 15.4598L7.73777 14.6118ZM9.1465 16.3345C8.75653 16.1646 8.57406 15.9114 8.50251 15.7836L11.1705 14.7156C11.4702 15.1637 11.8002 15.6279 12.1303 16.0376C10.5435 16.6601 9.63216 16.5474 9.1465 16.3345ZM13.6553 16.8318C13.3905 16.839 12.3995 15.729 11.5292 14.4276C11.5766 14.3185 11.5829 14.1915 11.5354 14.0725L11.2009 13.2371C11.658 12.9938 12.1383 12.7272 12.6186 12.4553C13.9102 16.2451 13.6902 16.7755 13.6553 16.8318ZM16.3458 9.76219C15.6713 10.0851 10.369 13.4221 8.76709 13.8462C8.59446 13.8918 8.40036 13.9482 8.1875 14.009C6.78591 14.4133 4.66882 15.0251 2.3344 14.5492C2.22528 14.5278 2.35319 14.4151 2.32367 13.5484C3.28608 13.2943 3.68947 13.1763 4.31648 13.0001L4.49089 13.5564C4.52846 13.6933 4.64742 13.7925 4.78336 13.8042C5.2127 13.848 5.58478 13.729 5.94524 13.492C6.06688 13.3999 6.12055 13.2461 6.07851 13.0904L5.90141 12.5367C6.05973 12.4893 6.41661 12.3811 6.53556 12.3453L6.70998 12.8999C6.74754 13.0367 6.86561 13.136 6.9962 13.1476C7.40764 13.1942 7.79226 13.0806 8.14287 12.848C8.27703 12.7648 8.33875 12.6029 8.29671 12.4446L8.13392 11.8418C8.29313 11.7899 8.71351 11.653 8.76361 11.6369L8.92371 12.2443C8.96039 12.3802 9.07845 12.4795 9.20993 12.492C9.63212 12.5403 10.0096 12.4214 10.3664 12.1879C10.4952 12.102 10.5561 11.9375 10.514 11.7908L10.3253 11.1083C13.8252 9.8847 16.3707 8.7613 18.0917 7.68351C18.1025 7.67635 18.1087 7.66651 18.1186 7.65846C18.4611 7.92412 19.1427 8.31588 20.3189 8.46794C19.5076 8.83913 16.7252 9.57974 16.3458 9.76219Z" stroke="#94A3B8" stroke-width="0.2" mask="url(#path-1-outside-1_253_647)"/>
</svg>
