<svg width="20" height="20" viewBox="0 0 20 20" fill="none" xmlns="http://www.w3.org/2000/svg">
<path d="M17.7278 0H2.27221C1.01763 0.000852243 0.000872753 1.01765 0 2.27221V17.7278C0.000852243 18.9824 1.01765 19.9991 2.27221 20H17.7278C18.9824 19.9991 19.9991 18.9823 20 17.7278V2.27221C19.9991 1.01763 18.9823 0.000872753 17.7278 0ZM19.0915 17.7278C19.0906 18.4804 18.4804 19.0906 17.7278 19.0915H2.27221C1.51964 19.0906 0.909386 18.4804 0.908535 17.7278V2.27221C0.909388 1.51964 1.51964 0.909386 2.27221 0.908535H17.7278C18.4804 0.909388 19.0906 1.51964 19.0915 2.27221V17.7278Z" fill="#94A3B8"/>
<path d="M5.34909 7.83256C4.47293 7.83256 3.682 8.36014 3.34704 9.17067C3.01122 9.98034 3.19703 10.9128 3.81664 11.5332C4.43713 12.1528 5.36953 12.3386 6.17919 12.0028C6.98971 11.667 7.51729 10.8769 7.51729 9.99991C7.51644 8.80328 6.54657 7.83341 5.34909 7.83256ZM5.34909 11.2588C4.84027 11.2588 4.38173 10.952 4.18656 10.4815C3.99224 10.011 4.09963 9.4698 4.46015 9.11012C4.81981 8.74961 5.36102 8.64222 5.8315 8.83739C6.30196 9.03171 6.6088 9.4911 6.6088 9.99991C6.60795 10.6945 6.04456 11.2579 5.34909 11.2588Z" fill="#94A3B8"/>
<path d="M5.34909 13.3912C4.47293 13.392 3.682 13.9196 3.34704 14.7301C3.01122 15.5398 3.19703 16.4722 3.81664 17.0927C4.43713 17.7123 5.36953 17.8981 6.17919 17.5623C6.98971 17.2273 7.51729 16.4364 7.51729 15.5594C7.51644 14.3627 6.54657 13.3929 5.34909 13.3912ZM5.34909 16.8182C4.84027 16.8182 4.38173 16.5114 4.18656 16.0409C3.99224 15.5705 4.09963 15.0293 4.46015 14.6687C4.81981 14.3091 5.36102 14.2017 5.8315 14.3969C6.30196 14.5912 6.6088 15.0506 6.6088 15.5594C6.60795 16.2549 6.04456 16.8174 5.34909 16.8182Z" fill="#94A3B8"/>
<path d="M5.34909 2.27202C4.47293 2.27202 3.682 2.80045 3.34704 3.61097C3.01122 4.42065 3.19703 5.35307 3.81664 5.97351C4.43713 6.59312 5.36953 6.77893 6.17919 6.44312C6.98971 6.10731 7.51814 5.31722 7.51729 4.44022C7.51644 3.24359 6.54657 2.27372 5.34909 2.27202ZM5.34909 5.6991C4.84027 5.6991 4.38173 5.39228 4.18656 4.9218C3.99224 4.45134 4.09963 3.91013 4.4593 3.55045C4.81981 3.18993 5.36102 3.08254 5.8315 3.27686C6.30196 3.47204 6.6088 3.93057 6.6088 4.44024C6.60795 5.13486 6.04456 5.69825 5.34909 5.6991Z" fill="#94A3B8"/>
<path d="M14.6509 7.83256C13.7739 7.83256 12.9829 8.36014 12.648 9.17067C12.3122 9.98034 12.498 10.9128 13.1176 11.5332C13.7372 12.1528 14.6696 12.3386 15.4801 12.0028C16.2898 11.667 16.8182 10.8769 16.8182 9.99991C16.8165 8.80328 15.8475 7.83341 14.6509 7.83256ZM14.6509 11.2588C14.1412 11.2588 13.6827 10.952 13.4875 10.4815C13.2932 10.011 13.4006 9.4698 13.7602 9.11012C14.1208 8.74961 14.662 8.64222 15.1325 8.83739C15.6021 9.03171 15.9089 9.4911 15.9089 9.99991C15.908 10.6945 15.3455 11.2579 14.6509 11.2588Z" fill="#94A3B8"/>
<path d="M14.6509 13.3911C13.7739 13.3911 12.983 13.9196 12.6471 14.7292C12.3122 15.5398 12.4971 16.4722 13.1176 17.0927C13.7372 17.7123 14.6696 17.8981 15.4801 17.5623C16.2898 17.2264 16.8182 16.4364 16.8182 15.5594C16.8165 14.3627 15.8475 13.3928 14.6509 13.3911ZM14.6509 16.8182C14.1412 16.8182 13.6827 16.5114 13.4875 16.0409C13.2923 15.5704 13.4006 15.0292 13.7603 14.6696C14.1199 14.3091 14.662 14.2017 15.1325 14.3968C15.6029 14.5912 15.9089 15.0505 15.9089 15.5594C15.9081 16.254 15.3455 16.8174 14.6509 16.8182Z" fill="#94A3B8"/>
<path d="M14.6509 2.27199C13.7739 2.27199 12.983 2.80042 12.6471 3.6101C12.3122 4.42062 12.4971 5.35305 13.1176 5.97351C13.7372 6.59312 14.6696 6.77893 15.4801 6.44312C16.2898 6.10731 16.8182 5.31722 16.8182 4.44022C16.8165 3.24359 15.8475 2.2737 14.6509 2.27199ZM14.6509 5.69908C14.1412 5.69908 13.6827 5.39226 13.4875 4.92178C13.2923 4.4513 13.4006 3.91011 13.7603 3.55042C14.1199 3.18991 14.662 3.08252 15.1316 3.27684C15.6021 3.47201 15.9089 3.93055 15.9089 4.44022C15.9089 5.13484 15.3455 5.69823 14.6509 5.69908Z" fill="#94A3B8"/>
</svg>
