<svg width="20" height="12" viewBox="0 0 20 12" fill="none" xmlns="http://www.w3.org/2000/svg">
<path d="M5.07372 8.67844C4.97171 8.67844 4.87387 8.63792 4.80174 8.56579C4.72961 8.49366 4.68908 8.39582 4.68908 8.29381V6.19541C4.6887 6.01063 4.61513 5.83353 4.48448 5.70288C4.35382 5.57222 4.17672 5.49865 3.99194 5.49827H2.34836C2.16359 5.49865 1.98649 5.57222 1.85583 5.70288C1.72517 5.83353 1.6516 6.01063 1.65122 6.19541V8.29381C1.65122 8.39582 1.6107 8.49366 1.53856 8.56579C1.46643 8.63792 1.3686 8.67844 1.26659 8.67844C1.16458 8.67844 1.06675 8.63792 0.994614 8.56579C0.922481 8.49366 0.881958 8.39582 0.881958 8.29381V6.19541C0.88253 5.80667 1.03721 5.43402 1.31209 5.15914C1.58697 4.88426 1.95962 4.72958 2.34836 4.729H3.9905C4.37926 4.72951 4.75195 4.88417 5.02684 5.15907C5.30174 5.43396 5.4564 5.80665 5.4569 6.19541V8.29381C5.45691 8.39557 5.41658 8.49319 5.34476 8.56528C5.27294 8.63737 5.17548 8.67806 5.07372 8.67844Z" fill="#94A3B8"/>
<path d="M3.9905 11.6255H2.34836C1.95962 11.6249 1.58697 11.4702 1.31209 11.1953C1.03721 10.9205 0.88253 10.5478 0.881958 10.1591V10.0668C0.881958 9.96475 0.922481 9.86692 0.994614 9.79479C1.06675 9.72265 1.16458 9.68213 1.26659 9.68213C1.3686 9.68213 1.46643 9.72265 1.53856 9.79479C1.6107 9.86692 1.65122 9.96475 1.65122 10.0668V10.1591C1.6516 10.3438 1.72517 10.5209 1.85583 10.6516C1.98649 10.7823 2.16359 10.8558 2.34836 10.8562H3.9905C4.17528 10.8558 4.35238 10.7823 4.48303 10.6516C4.61369 10.5209 4.68726 10.3438 4.68764 10.1591V10.0668C4.68764 9.96475 4.72817 9.86692 4.8003 9.79479C4.87243 9.72265 4.97026 9.68213 5.07227 9.68213C5.17428 9.68213 5.27212 9.72265 5.34425 9.79479C5.41638 9.86692 5.4569 9.96475 5.4569 10.0668V10.1591C5.4564 10.5478 5.30174 10.9205 5.02684 11.1954C4.75195 11.4703 4.37926 11.625 3.9905 11.6255Z" fill="#94A3B8"/>
<path d="M17.6524 11.6255H16.0102C15.6215 11.625 15.2488 11.4703 14.9739 11.1954C14.699 10.9205 14.5443 10.5478 14.5438 10.1591V10.0668C14.5438 9.96475 14.5843 9.86692 14.6565 9.79479C14.7286 9.72265 14.8264 9.68213 14.9284 9.68213C15.0305 9.68213 15.1283 9.72265 15.2004 9.79479C15.2726 9.86692 15.3131 9.96475 15.3131 10.0668V10.1591C15.3135 10.3438 15.387 10.5209 15.5177 10.6516C15.6483 10.7823 15.8254 10.8558 16.0102 10.8562H17.6533C17.8381 10.8558 18.0152 10.7823 18.1459 10.6516C18.2765 10.5209 18.3501 10.3438 18.3505 10.1591V10.0668C18.3505 9.96475 18.391 9.86692 18.4631 9.79479C18.5353 9.72265 18.6331 9.68213 18.7351 9.68213C18.8371 9.68213 18.9349 9.72265 19.0071 9.79479C19.0792 9.86692 19.1197 9.96475 19.1197 10.0668V10.1591C19.1192 10.548 18.9643 10.9208 18.6893 11.1957C18.4142 11.4706 18.0413 11.6252 17.6524 11.6255Z" fill="#94A3B8"/>
<path d="M12.4524 10.4519H7.54834C7.44633 10.4519 7.3485 10.4114 7.27636 10.3393C7.20423 10.2671 7.16371 10.1693 7.16371 10.0673C7.1642 9.88484 7.1285 9.7041 7.05868 9.53554C6.98887 9.36698 6.88631 9.21394 6.75696 9.08527C6.72108 9.0491 6.68303 9.01514 6.64301 8.98359C6.6003 8.94996 6.56521 8.90766 6.54004 8.85947C6.51487 8.81129 6.5002 8.75832 6.497 8.70405C6.4938 8.64979 6.50213 8.59546 6.52146 8.54465C6.54078 8.49384 6.57066 8.44771 6.60912 8.40929L7.513 7.5054C7.56363 7.45479 7.62738 7.41932 7.69707 7.40297C7.76676 7.38662 7.83963 7.39004 7.90749 7.41285L10.0004 8.11769L12.094 7.41285C12.1021 7.41021 12.1103 7.4078 12.118 7.40564L14.8282 6.69143C14.8851 6.67642 14.9447 6.67467 15.0024 6.68632C15.0601 6.69798 15.1144 6.72272 15.161 6.75865C15.2077 6.79458 15.2454 6.84073 15.2714 6.89355C15.2974 6.94637 15.3109 7.00445 15.3109 7.06332V8.29389C15.3109 8.39591 15.2704 8.49374 15.1983 8.56587C15.1261 8.638 15.0283 8.67853 14.9263 8.67853H14.2263C13.858 8.67878 13.5048 8.82516 13.2444 9.08554C12.9839 9.34591 12.8374 9.699 12.837 10.0673C12.837 10.1693 12.7965 10.2671 12.7244 10.3393C12.6522 10.4114 12.5544 10.4519 12.4524 10.4519ZM7.89763 9.68265H12.1021C12.1929 9.18544 12.455 8.73576 12.843 8.41178C13.2309 8.08779 13.7201 7.90998 14.2255 7.90926H14.5417V7.56286L12.3264 8.14653L10.123 8.88791C10.0434 8.91484 9.95728 8.91484 9.87776 8.88791L7.88754 8.21817L7.4267 8.67877C7.6695 8.96607 7.83219 9.31236 7.89835 9.68265H7.89763Z" fill="#94A3B8"/>
<path d="M18.7346 8.67844C18.6326 8.67844 18.5348 8.63792 18.4626 8.56579C18.3905 8.49366 18.35 8.39582 18.35 8.29381V6.19541C18.3496 6.01063 18.276 5.83353 18.1454 5.70288C18.0147 5.57222 17.8376 5.49865 17.6528 5.49827H16.0102C15.8254 5.49865 15.6483 5.57222 15.5177 5.70288C15.387 5.83353 15.3135 6.01063 15.3131 6.19541V7.29257C15.3131 7.39458 15.2726 7.49241 15.2004 7.56455C15.1283 7.63668 15.0305 7.6772 14.9284 7.6772C14.8264 7.6772 14.7286 7.63668 14.6565 7.56455C14.5843 7.49241 14.5438 7.39458 14.5438 7.29257V6.19541C14.5443 5.80665 14.699 5.43396 14.9739 5.15907C15.2488 4.88417 15.6215 4.72951 16.0102 4.729H17.6533C18.0421 4.72958 18.4147 4.88426 18.6896 5.15914C18.9645 5.43402 19.1192 5.80667 19.1197 6.19541V8.29381C19.1197 8.34436 19.1098 8.39442 19.0904 8.44112C19.071 8.48781 19.0427 8.53024 19.0069 8.56596C18.9711 8.60168 18.9287 8.63 18.882 8.6493C18.8352 8.66861 18.7852 8.67851 18.7346 8.67844Z" fill="#94A3B8"/>
<path d="M7.54834 10.4518H0.384585C0.325887 10.4518 0.26797 10.4384 0.215269 10.4125C0.162568 10.3867 0.116481 10.3491 0.0805394 10.3027C0.0445974 10.2563 0.0197533 10.2023 0.00791024 10.1448C-0.00393283 10.0873 -0.00246071 10.0279 0.0122137 9.97104L0.355737 8.64262C0.409998 8.43264 0.532506 8.24664 0.704 8.11388C0.875495 7.98111 1.08625 7.90911 1.30313 7.90918H5.77447C6.26356 7.90932 6.73815 8.07534 7.12068 8.38011C7.18408 8.43016 7.24445 8.48395 7.30146 8.54118C7.50236 8.74117 7.66162 8.97901 7.77002 9.24095C7.87842 9.50289 7.9338 9.78372 7.93297 10.0672C7.93297 10.1692 7.89245 10.267 7.82032 10.3392C7.74818 10.4113 7.65035 10.4518 7.54834 10.4518ZM0.882201 9.68257H7.10938C7.04453 9.45659 6.92296 9.25095 6.75624 9.08519C6.72036 9.04901 6.6823 9.01505 6.64229 8.9835C6.6416 8.98273 6.64079 8.98208 6.63989 8.98158C6.39479 8.78415 6.08919 8.6771 5.77447 8.67844H1.30313C1.25679 8.67841 1.21175 8.6938 1.1751 8.72217C1.13846 8.75055 1.11229 8.7903 1.10072 8.83518L0.882201 9.68257Z" fill="#94A3B8"/>
<path d="M19.6161 10.4518H12.4524C12.3504 10.4518 12.2525 10.4113 12.1804 10.3392C12.1083 10.267 12.0677 10.1692 12.0677 10.0672C12.0684 9.4951 12.2959 8.9466 12.7004 8.54204C13.105 8.13747 13.6534 7.90988 14.2255 7.90918H18.6969C18.9138 7.90912 19.1246 7.98116 19.2961 8.11397C19.4676 8.24679 19.59 8.43284 19.6443 8.64286L19.9878 9.9708C20.0025 10.0276 20.0039 10.0871 19.9921 10.1446C19.9802 10.2021 19.9554 10.2561 19.9195 10.3025C19.8835 10.3489 19.8374 10.3865 19.7847 10.4123C19.732 10.4381 19.6741 10.4516 19.6154 10.4516L19.6161 10.4518ZM12.8918 9.68257H19.1192L18.9 8.83542C18.8885 8.7905 18.8623 8.75069 18.8257 8.72227C18.789 8.69385 18.744 8.67843 18.6976 8.67844H14.2263C13.9251 8.67883 13.6322 8.77693 13.3916 8.958C13.151 9.13906 12.9756 9.39332 12.8918 9.68257Z" fill="#94A3B8"/>
<path d="M10.0004 8.90897C9.95867 8.90897 9.91726 8.90215 9.87776 8.88877L7.66133 8.14355C7.57656 8.11476 7.50449 8.05731 7.45753 7.98108C7.41058 7.90486 7.39168 7.81465 7.4041 7.72599L7.7647 5.03694L7.15121 3.57053C7.12472 3.50726 7.11563 3.43805 7.12489 3.37008C7.13414 3.30211 7.16141 3.23786 7.20386 3.18397L7.61373 2.66352C7.64973 2.61782 7.69562 2.58087 7.74796 2.55547C7.8003 2.53007 7.85773 2.51688 7.9159 2.51688H9.11788C9.3922 2.38811 9.69086 2.31942 9.99387 2.31543H10.0049C10.3079 2.31942 10.6066 2.38811 10.8809 2.51688H12.0829C12.1411 2.51688 12.1985 2.53007 12.2508 2.55547C12.3032 2.58087 12.3491 2.61782 12.3851 2.66352L12.7937 3.18397C12.8369 3.23783 12.8647 3.30228 12.8743 3.37059C12.884 3.43889 12.8751 3.50853 12.8486 3.57221L12.2351 5.03862L12.3435 5.84105L12.5978 7.72767C12.6098 7.81622 12.5905 7.90615 12.5433 7.98204C12.4962 8.05793 12.4241 8.11504 12.3394 8.14355L10.123 8.88877C10.0835 8.90215 10.0421 8.90897 10.0004 8.90897ZM8.20774 7.51468L10.0004 8.11759L11.793 7.51468L11.4588 5.03621C11.4497 4.96848 11.4587 4.89952 11.485 4.83645L12.0517 3.48279L11.8971 3.28686H10.7872C10.7167 3.28814 10.6474 3.26875 10.5879 3.23109C10.4058 3.13806 10.2048 3.08821 10.0004 3.08541C9.79656 3.08753 9.59602 3.13691 9.41452 3.22965C9.35405 3.26673 9.28449 3.28637 9.21355 3.28638H8.10365L7.94908 3.4823L8.51569 4.83597C8.54202 4.89904 8.55106 4.968 8.54189 5.03573L8.20774 7.51468Z" fill="#94A3B8"/>
<path d="M11.2023 3.28666C11.1003 3.28666 11.0025 3.24613 10.9304 3.174C10.8582 3.10187 10.8177 3.00404 10.8177 2.90203V2.30104C10.8177 1.81737 10.4054 1.14426 10.0004 1.14426C9.82439 1.14426 9.62871 1.27624 9.46356 1.50606C9.29096 1.74525 9.18302 2.04959 9.18302 2.30008V2.90106C9.18302 3.00308 9.1425 3.10091 9.07036 3.17304C8.99823 3.24517 8.9004 3.2857 8.79839 3.2857C8.69638 3.2857 8.59855 3.24517 8.52641 3.17304C8.45428 3.10091 8.41376 3.00308 8.41376 2.90106V2.30008C8.41376 1.89141 8.57242 1.42552 8.83805 1.05604C9.15465 0.615394 9.56765 0.375 10.0004 0.375C10.4331 0.375 10.8458 0.617317 11.1622 1.057C11.4266 1.42673 11.5862 1.89165 11.5862 2.30104V2.90203C11.5862 3.00391 11.5458 3.10164 11.4738 3.17375C11.4019 3.24586 11.3042 3.28647 11.2023 3.28666Z" fill="#94A3B8"/>
<path d="M13.1192 9.06493C13.0173 9.06488 12.9195 9.02432 12.8474 8.95218L11.9447 8.04926C11.8725 7.97712 11.832 7.87928 11.832 7.77725C11.832 7.67523 11.8725 7.57739 11.9447 7.50525C12.0168 7.43311 12.1147 7.39258 12.2167 7.39258C12.3187 7.39258 12.4165 7.43311 12.4887 7.50525L13.3914 8.40817C13.4452 8.46196 13.4819 8.53052 13.4968 8.60517C13.5116 8.67983 13.504 8.75721 13.4749 8.82753C13.4457 8.89785 13.3964 8.95794 13.3331 9.0002C13.2698 9.04246 13.1954 9.06499 13.1192 9.06493Z" fill="#94A3B8"/>
<path d="M11.9968 6.53091C11.9124 6.53098 11.8302 6.50324 11.7631 6.45198C11.696 6.40072 11.6476 6.32879 11.6254 6.24728C11.6032 6.16578 11.6085 6.07924 11.6404 6.00103C11.6723 5.92282 11.729 5.85728 11.8019 5.81454L14.0044 4.52073C14.076 4.47863 14.1318 4.41412 14.1631 4.33715C14.1944 4.26019 14.1996 4.17505 14.1777 4.09489C14.1558 4.01472 14.1081 3.94399 14.0421 3.89361C13.976 3.84323 13.8951 3.81601 13.8121 3.81614H12.4899C12.3879 3.81614 12.29 3.77561 12.2179 3.70348C12.1458 3.63135 12.1052 3.53352 12.1052 3.43151C12.1052 3.3295 12.1458 3.23166 12.2179 3.15953C12.29 3.0874 12.3879 3.04688 12.4899 3.04688H13.8121C14.064 3.04682 14.309 3.12967 14.5091 3.28265C14.7093 3.43563 14.8536 3.65023 14.9197 3.89334C14.9859 4.13646 14.9701 4.39458 14.875 4.62787C14.7799 4.86117 14.6106 5.05667 14.3933 5.18422L12.1906 6.47803C12.1319 6.51257 12.065 6.53082 11.9968 6.53091Z" fill="#94A3B8"/>
<path d="M8.00509 6.53091C7.9367 6.53095 7.86955 6.51269 7.81061 6.47803L5.60787 5.18422C5.3906 5.05667 5.22134 4.86117 5.1262 4.62787C5.03106 4.39458 5.01534 4.13646 5.08146 3.89334C5.14758 3.65023 5.29186 3.43563 5.49205 3.28265C5.69223 3.12967 5.9372 3.04682 6.18915 3.04688H7.51132C7.61333 3.04688 7.71116 3.0874 7.78329 3.15953C7.85542 3.23166 7.89595 3.3295 7.89595 3.43151C7.89595 3.53352 7.85542 3.63135 7.78329 3.70348C7.71116 3.77561 7.61333 3.81614 7.51132 3.81614H6.18915C6.10605 3.81601 6.02522 3.84323 5.95914 3.89361C5.89306 3.94399 5.8454 4.01472 5.82352 4.09489C5.80164 4.17505 5.80676 4.26019 5.83808 4.33715C5.8694 4.41412 5.92519 4.47863 5.99683 4.52073L8.19932 5.81454C8.27218 5.85728 8.32893 5.92282 8.36083 6.00103C8.39273 6.07924 8.39799 6.16578 8.37581 6.24728C8.35363 6.32879 8.30524 6.40072 8.2381 6.45198C8.17097 6.50324 8.08883 6.53098 8.00436 6.53091H8.00509Z" fill="#94A3B8"/>
<path d="M14.9284 6.67352C14.9112 6.67351 14.8939 6.6723 14.8768 6.66992L11.911 6.2723C11.8099 6.25872 11.7183 6.20553 11.6564 6.12443C11.5945 6.04332 11.5674 5.94095 11.581 5.83983C11.5945 5.73872 11.6477 5.64713 11.7288 5.58524C11.8099 5.52334 11.9123 5.49619 12.0134 5.50977L14.9782 5.90835C15.0739 5.92233 15.1608 5.97182 15.2216 6.04697C15.2824 6.12212 15.3127 6.21742 15.3064 6.3139C15.3001 6.41037 15.2578 6.50095 15.1877 6.56759C15.1177 6.63423 15.0251 6.67205 14.9284 6.67352Z" fill="#94A3B8"/>
<path d="M5.07228 6.67327C4.97467 6.67325 4.88073 6.63614 4.80947 6.56944C4.73822 6.50274 4.69498 6.41144 4.68853 6.31405C4.68208 6.21666 4.7129 6.12046 4.77473 6.04495C4.83657 5.96944 4.9248 5.92025 5.02155 5.90737L7.98634 5.5088C8.08746 5.49522 8.18983 5.52236 8.27093 5.58426C8.35203 5.64616 8.40523 5.73774 8.41881 5.83886C8.43239 5.93998 8.40524 6.04235 8.34334 6.12345C8.28145 6.20455 8.18986 6.25775 8.08875 6.27133L5.12492 6.67038C5.10746 6.67257 5.08987 6.67354 5.07228 6.67327Z" fill="#94A3B8"/>
<path d="M7.7844 8.16189C7.75122 8.16189 7.71817 8.15761 7.68608 8.14915L4.97612 7.43494C4.92653 7.42277 4.87986 7.40085 4.83883 7.37046C4.7978 7.34007 4.76323 7.30181 4.73715 7.25792C4.71106 7.21403 4.69397 7.16539 4.68687 7.11482C4.67978 7.06426 4.68283 7.01279 4.69583 6.96341C4.70884 6.91404 4.73154 6.86775 4.76263 6.82724C4.79371 6.78673 4.83255 6.75282 4.87687 6.72748C4.9212 6.70214 4.97013 6.68587 5.0208 6.67964C5.07148 6.6734 5.12289 6.67732 5.17204 6.69116L7.88224 7.40537C7.97254 7.42921 8.05108 7.48508 8.1032 7.56257C8.15533 7.64005 8.17749 7.73386 8.16554 7.82648C8.15359 7.9191 8.10835 8.00421 8.03826 8.06592C7.96818 8.12764 7.87803 8.16175 7.78464 8.16189H7.7844Z" fill="#94A3B8"/>
</svg>
