<svg width="20" height="20" viewBox="0 0 20 20" fill="none" xmlns="http://www.w3.org/2000/svg">
<path d="M0 10C0 12.6522 1.05274 15.1958 2.92885 17.0712C4.80408 18.9473 7.34778 20 10 20C12.6522 20 15.1958 18.9473 17.0712 17.0712C18.9473 15.1959 20 12.6522 20 10C20 7.34778 18.9473 4.80417 17.0712 2.92885C15.1959 1.05269 12.6522 0 10 0C7.34873 0.00278507 4.80679 1.05737 2.9317 2.9317C1.05739 4.80693 0.00285185 7.34873 0 10ZM12.1862 0.992442L11.9922 1.27373H8.1405L7.93441 0.964589H7.93534C9.33433 0.64245 10.79 0.651742 12.1853 0.99244L12.1862 0.992442ZM16.9996 5.66757L18.2492 9.51281L16.437 11.7612L13.8191 10.8765L12.6076 7.15105L14.2173 4.92954L16.9996 5.66757ZM16.2839 15.3185L13.0133 17.695L10.3147 16.6664L10.3463 13.9027L13.5156 11.5995L16.126 12.4443L16.2839 15.3185ZM6.88348 17.6198L3.61289 15.2433L3.75678 12.3598L6.39521 11.5354L9.56456 13.8377L9.56828 16.5809L6.88348 17.6198ZM2.88804 15.118L2.34495 15.222C1.34978 13.7691 0.791839 12.0619 0.737084 10.3018L1.34144 9.99548L3.04028 12.0833L2.88804 15.118ZM5.82711 4.7922L7.42571 7.0462L6.21515 10.7726L3.60737 11.6239L1.79063 9.39125L3.04016 5.54601L5.82711 4.7922ZM2.35784 5.2805L1.04332 9.32798L0.74533 9.4793C0.833521 7.88256 1.33668 6.33586 2.20374 4.99359L2.35784 5.2805ZM6.90772 11.0056L8.08857 7.36924H11.9115L13.0923 11.0046L9.99998 13.2521L6.90772 11.0056ZM17.009 15.2185L16.8549 12.4066L18.7236 10.0876L19.2583 10.4775C19.1683 12.2395 18.5751 13.9391 17.5474 15.3736L17.009 15.2185ZM18.9677 9.36244L17.6811 5.40123L17.8528 5.08187V5.08094C18.7032 6.43167 19.1878 7.98008 19.2592 9.57498L18.9677 9.36244ZM12.0145 6.63964H8.09604L6.48073 4.42279L8.04311 2.00442H12.0861L13.6652 4.42184L12.0145 6.63964ZM7.19176 1.16624L7.45727 1.56543L5.86796 4.02562L2.93816 4.81748L2.67544 4.32825C3.82658 2.84198 5.40104 1.73898 7.19176 1.16624ZM2.83224 15.872L3.1516 15.8108L6.58736 18.3071V18.6171C5.12432 18.0351 3.83205 17.09 2.83224 15.872ZM7.31796 18.8734V18.2347L9.82996 17.2636L12.6687 18.3451L12.5982 18.8975H12.5991C10.8733 19.4034 9.03833 19.3951 7.31796 18.8734ZM13.3689 18.6338L13.4106 18.308L16.7295 15.897L17.0646 15.9935H17.0637C16.0694 17.166 14.7995 18.073 13.3689 18.6346L13.3689 18.6338ZM17.3857 4.40622L17.0998 4.93909L14.4067 4.22427L12.6735 1.57016L12.925 1.20531C14.7 1.79944 16.2549 2.91525 17.3857 4.40622Z" fill="#94A3B8"/>
</svg>
