<svg width="20" height="20" viewBox="0 0 20 20" fill="none" xmlns="http://www.w3.org/2000/svg">
<path d="M17.212 0H10H9.9992H2.784C1.2488 0 0 1.2488 0 2.784V10V17.216C0 18.7512 1.2488 20 2.784 20H10H17.212C18.7492 20 20 18.7512 20 17.216V10V2.784C20 1.2488 18.7492 0 17.212 0ZM0.8 2.784C0.8 1.69 1.69 0.8 2.784 0.8H9.6V9.6H0.8V2.784ZM0.8 17.216V10.4H9.6V19.2H2.784C1.69 19.2 0.8 18.31 0.8 17.216ZM19.2 17.216C19.2 18.31 18.3084 19.2 17.212 19.2H10.4V10.4H19.2V17.216ZM19.2 9.6H10.4V0.8H17.212C18.3084 0.8 19.2 1.69 19.2 2.784V9.6Z" fill="#94A3B8"/>
<path d="M14.8 2.37842C13.244 2.37842 11.9784 3.64442 11.9784 5.20002C11.9784 6.75562 13.244 8.02162 14.8 8.02162C16.3556 8.02162 17.6212 6.75602 17.6212 5.20002C17.6212 3.64402 16.3556 2.37842 14.8 2.37842ZM14.8 7.22162C13.6852 7.22162 12.7784 6.31482 12.7784 5.20002C12.7784 4.08522 13.6852 3.17842 14.8 3.17842C15.9144 3.17842 16.8212 4.08522 16.8212 5.20002C16.8212 6.31482 15.9144 7.22162 14.8 7.22162Z" fill="#94A3B8"/>
<path d="M5.2 11.9785C3.644 11.9785 2.3784 13.2445 2.3784 14.8001C2.3784 16.3557 3.644 17.6217 5.2 17.6217C6.7556 17.6217 8.0212 16.3561 8.0212 14.8001C8.0212 13.2441 6.7556 11.9785 5.2 11.9785ZM5.2 16.8217C4.0852 16.8217 3.1784 15.9149 3.1784 14.8001C3.1784 13.6853 4.0852 12.7785 5.2 12.7785C6.3144 12.7785 7.2212 13.6853 7.2212 14.8001C7.2212 15.9149 6.3144 16.8217 5.2 16.8217Z" fill="#94A3B8"/>
<path d="M7.6944 3.88562C7.2208 2.99042 6.2812 2.37842 5.2 2.37842C3.644 2.37842 2.3784 3.64442 2.3784 5.20002C2.3784 6.75562 3.6444 8.02162 5.2 8.02162C6.7556 8.02162 8.0212 6.75602 8.0212 5.20002C8.0212 4.72722 7.9032 4.28242 7.6968 3.89042C7.696 3.88882 7.6952 3.88762 7.6944 3.88562ZM6.8144 3.99602L3.996 6.81402C3.7712 6.64562 3.5856 6.43242 3.4468 6.18642L6.1848 3.44522C6.4312 3.58442 6.6456 3.77042 6.8144 3.99602ZM5.2 3.17842C5.2376 3.17842 5.2724 3.18762 5.3092 3.18962L3.1896 5.31202C3.1876 5.27442 3.1784 5.23842 3.1784 5.20042C3.1784 4.08522 4.0852 3.17842 5.2 3.17842ZM5.2 7.22162C5.0516 7.22162 4.908 7.20322 4.7684 7.17282L7.1724 4.76882C7.2028 4.90802 7.2212 5.05162 7.2212 5.20002C7.2212 6.31482 6.3148 7.22162 5.2 7.22162Z" fill="#94A3B8"/>
<path d="M14.8 17.6217C16.3556 17.6217 17.6212 16.3561 17.6212 14.8001C17.6212 14.3273 17.5032 13.8825 17.2968 13.4905C17.296 13.4889 17.2952 13.4873 17.2944 13.4857C16.8208 12.5905 15.8812 11.9785 14.8 11.9785C13.244 11.9785 11.9784 13.2445 11.9784 14.8001C11.9784 16.3557 13.2444 17.6217 14.8 17.6217ZM14.8 16.8217C14.6516 16.8217 14.508 16.8033 14.3684 16.7729L16.7724 14.3689C16.8028 14.5081 16.8212 14.6517 16.8212 14.8001C16.8212 15.9149 15.9148 16.8217 14.8 16.8217ZM16.4144 13.5961L13.596 16.4141C13.3712 16.2457 13.1856 16.0325 13.0468 15.7865L15.7848 13.0453C16.0312 13.1845 16.2456 13.3705 16.4144 13.5961ZM14.8 12.7785C14.8376 12.7785 14.8724 12.7877 14.9092 12.7897L12.7896 14.9121C12.7876 14.8745 12.7784 14.8385 12.7784 14.8005C12.7784 13.6853 13.6852 12.7785 14.8 12.7785Z" fill="#94A3B8"/>
</svg>
