<svg width="25" height="20" viewBox="0 0 25 20" fill="none" xmlns="http://www.w3.org/2000/svg">
<path fill-rule="evenodd" clip-rule="evenodd" d="M0.5 3.60334C0.5 3.60334 10.549 9.30188 12.4995 9.30188C14.5439 9.30188 24.484 3.71219 24.484 3.71219L24.5 2.71348C24.5 1.61091 23.6052 0.716064 22.4996 0.716064H2.49942C1.39484 0.716064 0.5 1.61091 0.5 2.71348V3.60334ZM24.484 5.30188C24.484 5.30188 14.6377 10.6419 12.4995 10.6419C10.549 10.6419 0.514981 5.30188 0.515979 5.30188L0.5 17.2864C0.5 18.389 1.39584 19.2838 2.49942 19.2838H22.4996C23.6052 19.2838 24.5 18.389 24.5 17.2864L24.484 5.30188Z" fill="#1A5EFF"/>
</svg>
