<svg width="20" height="20" viewBox="0 0 20 20" fill="none" xmlns="http://www.w3.org/2000/svg">
<mask id="path-1-inside-1_253_672" fill="white">
<path d="M18.694 0.430886C18.564 0.301548 18.3536 0.301548 18.2239 0.430886L13.9278 4.70503L12.3504 3.13564C12.2197 3.00564 12.0087 3.00597 11.8791 3.13698C11.7491 3.26731 11.7497 3.47832 11.8804 3.60833L12.5491 4.27368L10.001 6.8091L7.45325 4.27435L8.12094 3.60999C8.25161 3.47999 8.25228 3.26931 8.12227 3.13864C7.99227 3.00764 7.78126 3.00731 7.65092 3.13731L6.74556 4.03801L6.07454 4.70536L1.77739 0.429886C1.64772 0.300882 1.43738 0.300548 1.30738 0.429886L0.0983366 1.63259C0.0353345 1.69526 0 1.78026 0 1.86893C0 1.9576 0.0353345 2.04261 0.0983366 2.10528L4.39348 6.37842L3.72512 7.04344L2.81976 7.94414C2.68909 8.07414 2.68842 8.28481 2.81843 8.41549C2.88343 8.48115 2.9691 8.51382 3.05477 8.51382C3.13977 8.51382 3.22477 8.48149 3.28978 8.41682L3.96013 7.7498L6.50822 10.2845L2.51642 14.2557C2.48442 14.2873 2.45975 14.3257 2.44275 14.3684C2.44208 14.3697 2.44075 14.3707 2.44008 14.3724L0.594687 19.1452C0.547352 19.2672 0.576019 19.4055 0.667355 19.4989C0.731024 19.5642 0.817361 19.5989 0.905364 19.5989C0.943698 19.5989 0.982033 19.5922 1.01903 19.5789L5.8852 17.8108C5.88753 17.8101 5.88886 17.8078 5.8912 17.8071C5.93553 17.7898 5.97553 17.7651 6.00853 17.7318L10.0007 13.7597L13.9945 17.7338C13.9981 17.7375 14.0031 17.7388 14.0071 17.7421C14.0321 17.7651 14.0605 17.7838 14.0925 17.7985C14.0978 17.8008 14.1021 17.8048 14.1075 17.8068C14.1085 17.8071 14.1095 17.8081 14.1105 17.8085L18.908 19.6445C18.9473 19.6599 18.9876 19.6669 19.0276 19.6669C19.0296 19.6665 19.032 19.6669 19.0343 19.6669C19.2183 19.6669 19.3676 19.5175 19.3676 19.3335C19.3676 19.2702 19.35 19.2108 19.319 19.1602L17.5636 14.3774C17.5609 14.37 17.5559 14.3643 17.5526 14.3573C17.5456 14.3417 17.5373 14.327 17.5276 14.3123C17.5186 14.2983 17.5092 14.285 17.4982 14.2727C17.4936 14.2673 17.4909 14.2607 17.4856 14.2557L13.4938 10.2845L16.0422 7.74946L16.7136 8.41749C16.7786 8.48215 16.8636 8.51449 16.9486 8.51449C17.0342 8.51449 17.1199 8.48182 17.1849 8.41615C17.3149 8.28581 17.3142 8.07481 17.1836 7.9448L15.6085 6.37775L19.902 2.10594C19.9647 2.04327 20 1.95827 20 1.8696C20 1.78093 19.9653 1.69559 19.9023 1.63293L18.694 0.430886ZM0.806027 1.86893L1.54238 1.13624L5.60219 5.17571L4.86583 5.90807L0.806027 1.86893ZM5.43851 17.2638L1.48105 18.7018L2.97977 14.8254H5.43851V17.2638ZM5.63419 14.1587H3.55912L6.98057 10.7549L8.01593 11.7849L5.63419 14.1587ZM6.1052 16.6951V14.6304L8.48862 12.2553L9.52798 13.2893L6.1052 16.6951ZM18.4619 18.7602L14.5635 17.2681V14.8257H17.0179L18.4619 18.7602ZM16.4429 14.159H14.3675L8.72362 8.54349L7.21591 7.04344C7.08524 6.91344 6.87423 6.91377 6.74456 7.04477C6.61455 7.17511 6.61522 7.38612 6.74589 7.51612L8.25361 9.01617L13.8968 14.631V16.6954L10.236 13.053C10.236 13.053 10.2357 13.053 10.2357 13.0526L8.72462 11.5496L7.21557 10.0485L4.43248 7.27978L5.09984 6.61576C5.10017 6.61543 5.1005 6.61543 5.10084 6.61509L6.30954 5.41239C6.30988 5.41205 6.30988 5.41172 6.31021 5.41172L6.98023 4.74503L9.76466 7.51512C9.76499 7.51546 9.76499 7.51612 9.76533 7.51646L12.7854 10.5216C12.7858 10.5219 12.7864 10.5222 12.7871 10.5226L16.4429 14.159ZM13.0211 9.8142L11.9817 8.77983L13.2554 7.51612C13.3861 7.38645 13.3871 7.17544 13.2574 7.04477C13.1281 6.9141 12.9171 6.91344 12.7861 7.04277L11.5091 8.30948L10.4737 7.27911L13.0211 4.74436L15.5689 7.27945L13.0211 9.8142ZM15.1365 5.9074L14.4341 5.20871L14.4005 5.17538L18.4589 1.13758L19.1946 1.8696L15.1365 5.9074Z"/>
</mask>
<path d="M18.694 0.430886C18.564 0.301548 18.3536 0.301548 18.2239 0.430886L13.9278 4.70503L12.3504 3.13564C12.2197 3.00564 12.0087 3.00597 11.8791 3.13698C11.7491 3.26731 11.7497 3.47832 11.8804 3.60833L12.5491 4.27368L10.001 6.8091L7.45325 4.27435L8.12094 3.60999C8.25161 3.47999 8.25228 3.26931 8.12227 3.13864C7.99227 3.00764 7.78126 3.00731 7.65092 3.13731L6.74556 4.03801L6.07454 4.70536L1.77739 0.429886C1.64772 0.300882 1.43738 0.300548 1.30738 0.429886L0.0983366 1.63259C0.0353345 1.69526 0 1.78026 0 1.86893C0 1.9576 0.0353345 2.04261 0.0983366 2.10528L4.39348 6.37842L3.72512 7.04344L2.81976 7.94414C2.68909 8.07414 2.68842 8.28481 2.81843 8.41549C2.88343 8.48115 2.9691 8.51382 3.05477 8.51382C3.13977 8.51382 3.22477 8.48149 3.28978 8.41682L3.96013 7.7498L6.50822 10.2845L2.51642 14.2557C2.48442 14.2873 2.45975 14.3257 2.44275 14.3684C2.44208 14.3697 2.44075 14.3707 2.44008 14.3724L0.594687 19.1452C0.547352 19.2672 0.576019 19.4055 0.667355 19.4989C0.731024 19.5642 0.817361 19.5989 0.905364 19.5989C0.943698 19.5989 0.982033 19.5922 1.01903 19.5789L5.8852 17.8108C5.88753 17.8101 5.88886 17.8078 5.8912 17.8071C5.93553 17.7898 5.97553 17.7651 6.00853 17.7318L10.0007 13.7597L13.9945 17.7338C13.9981 17.7375 14.0031 17.7388 14.0071 17.7421C14.0321 17.7651 14.0605 17.7838 14.0925 17.7985C14.0978 17.8008 14.1021 17.8048 14.1075 17.8068C14.1085 17.8071 14.1095 17.8081 14.1105 17.8085L18.908 19.6445C18.9473 19.6599 18.9876 19.6669 19.0276 19.6669C19.0296 19.6665 19.032 19.6669 19.0343 19.6669C19.2183 19.6669 19.3676 19.5175 19.3676 19.3335C19.3676 19.2702 19.35 19.2108 19.319 19.1602L17.5636 14.3774C17.5609 14.37 17.5559 14.3643 17.5526 14.3573C17.5456 14.3417 17.5373 14.327 17.5276 14.3123C17.5186 14.2983 17.5092 14.285 17.4982 14.2727C17.4936 14.2673 17.4909 14.2607 17.4856 14.2557L13.4938 10.2845L16.0422 7.74946L16.7136 8.41749C16.7786 8.48215 16.8636 8.51449 16.9486 8.51449C17.0342 8.51449 17.1199 8.48182 17.1849 8.41615C17.3149 8.28581 17.3142 8.07481 17.1836 7.9448L15.6085 6.37775L19.902 2.10594C19.9647 2.04327 20 1.95827 20 1.8696C20 1.78093 19.9653 1.69559 19.9023 1.63293L18.694 0.430886ZM0.806027 1.86893L1.54238 1.13624L5.60219 5.17571L4.86583 5.90807L0.806027 1.86893ZM5.43851 17.2638L1.48105 18.7018L2.97977 14.8254H5.43851V17.2638ZM5.63419 14.1587H3.55912L6.98057 10.7549L8.01593 11.7849L5.63419 14.1587ZM6.1052 16.6951V14.6304L8.48862 12.2553L9.52798 13.2893L6.1052 16.6951ZM18.4619 18.7602L14.5635 17.2681V14.8257H17.0179L18.4619 18.7602ZM16.4429 14.159H14.3675L8.72362 8.54349L7.21591 7.04344C7.08524 6.91344 6.87423 6.91377 6.74456 7.04477C6.61455 7.17511 6.61522 7.38612 6.74589 7.51612L8.25361 9.01617L13.8968 14.631V16.6954L10.236 13.053C10.236 13.053 10.2357 13.053 10.2357 13.0526L8.72462 11.5496L7.21557 10.0485L4.43248 7.27978L5.09984 6.61576C5.10017 6.61543 5.1005 6.61543 5.10084 6.61509L6.30954 5.41239C6.30988 5.41205 6.30988 5.41172 6.31021 5.41172L6.98023 4.74503L9.76466 7.51512C9.76499 7.51546 9.76499 7.51612 9.76533 7.51646L12.7854 10.5216C12.7858 10.5219 12.7864 10.5222 12.7871 10.5226L16.4429 14.159ZM13.0211 9.8142L11.9817 8.77983L13.2554 7.51612C13.3861 7.38645 13.3871 7.17544 13.2574 7.04477C13.1281 6.9141 12.9171 6.91344 12.7861 7.04277L11.5091 8.30948L10.4737 7.27911L13.0211 4.74436L15.5689 7.27945L13.0211 9.8142ZM15.1365 5.9074L14.4341 5.20871L14.4005 5.17538L18.4589 1.13758L19.1946 1.8696L15.1365 5.9074Z" fill="#F8FAFC" stroke="#94A3B8" stroke-width="2" mask="url(#path-1-inside-1_253_672)"/>
</svg>
