<svg width="20" height="20" viewBox="0 0 20 20" fill="none" xmlns="http://www.w3.org/2000/svg">
<path d="M19.9716 9.24383C19.6629 5.1256 16.732 1.51781 12.7607 0.380035C10.5798 -0.244855 8.20892 -0.106411 6.11602 0.770258C4.3398 1.51426 2.79668 2.77937 1.71246 4.37049C-0.677988 7.87872 -0.553322 12.6603 2.00824 16.0452C4.4958 19.3323 8.86425 20.7698 12.8205 19.6054C16.7474 18.4496 19.6343 14.8925 19.9672 10.8149C20.0096 10.2923 20.0107 9.7665 19.9716 9.24383ZM18.8032 7.62271C18.1869 7.00649 17.3987 6.42538 16.5047 6.34538C15.594 6.26382 14.748 6.73671 14.0091 7.21271C13.542 6.60249 13.0429 6.01627 12.5271 5.44671C12.5945 5.40307 12.6622 5.35901 12.7303 5.31472C13.8909 4.55955 15.159 3.7345 16.5838 3.72715C17.6407 4.82849 18.4005 6.17005 18.8032 7.62271ZM12.2567 1.69337C12.2863 1.55515 12.2863 1.39026 12.2567 1.19626C13.5336 1.52248 14.7165 2.1187 15.7407 2.95115C15.23 3.04026 14.7085 3.19648 14.2518 3.44693C13.4523 3.84671 12.6854 4.32404 11.9383 4.81315C11.4718 4.32826 10.9805 3.86382 10.4629 3.43382C11.7005 2.68382 12.1089 2.38737 12.2567 1.69337ZM11.3405 1.01137L11.3408 1.01241C11.4049 1.23055 11.4732 1.46283 11.3718 1.67981C11.3111 1.80959 11.204 1.90848 11.0951 1.99782C10.7763 2.25958 10.415 2.47367 10.0578 2.68538C9.95222 2.74794 9.84702 2.81029 9.74336 2.87359C8.89025 2.25404 7.95714 1.73937 6.94847 1.42426C8.34581 0.936258 9.87514 0.793146 11.3405 1.01137ZM5.57802 2.03426C6.12891 2.04204 7.39447 2.29337 8.96314 3.36582C8.42714 3.71515 7.90314 4.04671 7.30358 4.27849C6.7858 4.47871 6.24669 4.61871 5.70647 4.7436C5.44099 4.80487 5.17325 4.85841 4.90542 4.91197C4.44665 5.00371 3.98764 5.0955 3.53935 5.22627C2.86557 5.42293 2.23824 5.7416 1.68513 6.17427C2.50402 4.43293 3.86202 2.97515 5.57802 2.03426ZM2.54135 14.1396C2.39624 14.3845 2.28513 14.6538 2.21024 14.9285C0.918014 12.8774 0.507125 10.3427 1.05624 7.98338C1.88157 7.01649 2.83224 6.2596 4.08358 5.9596C4.43805 5.87468 4.79514 5.80041 5.15212 5.72617C6.03001 5.54359 6.90718 5.36116 7.74291 5.02071C8.34843 4.77407 8.88328 4.4297 9.42661 4.07986C9.51577 4.02245 9.60517 3.96489 9.69514 3.9076C10.2005 4.30982 10.7109 4.77493 11.2205 5.29649C9.51003 6.4796 7.91292 7.82472 6.43025 9.28205C5.36913 10.3254 4.36935 11.4365 3.5058 12.6503C3.16291 13.1325 2.84291 13.6305 2.54135 14.1396ZM8.47603 19.1052C7.63291 19.1614 4.34535 17.6238 2.92868 15.9185C2.93757 15.4258 3.05024 14.9536 3.30135 14.5281C3.43802 14.2965 3.58024 14.0681 3.72646 13.8423C4.06646 13.3169 4.43246 12.8087 4.82135 12.3185C5.99358 10.8401 7.35425 9.51205 8.77469 8.27427C9.73981 7.43316 10.7545 6.64893 11.81 5.92493C12.3798 6.54938 12.8736 7.13427 13.3069 7.69738C12.6674 8.17072 12.0187 8.70516 11.5958 9.38916C11.2378 9.96827 11.016 10.6283 10.8458 11.2838C10.6855 11.9008 10.5876 12.5276 10.4897 13.1552C10.4458 13.4365 10.4018 13.718 10.3523 13.9987C10.2025 14.8458 10.0096 15.6863 9.74625 16.5058C9.44847 17.4325 9.08358 18.3352 8.47603 19.1052ZM16.2883 15.361C16.2778 15.9116 16.1929 16.4696 15.9838 16.9816C14.186 18.5452 11.8563 19.3518 9.4507 19.2127C10.3256 17.9163 10.7594 16.303 11.0696 14.7876C11.1605 14.343 11.2294 13.8874 11.2985 13.4298C11.4738 12.2693 11.6511 11.0959 12.1958 10.0569C12.56 9.36227 13.192 8.84316 13.8129 8.38405C14.5198 9.39383 15.1103 10.4738 15.5305 11.6343C15.9583 12.8156 16.312 14.0947 16.2883 15.361ZM17.118 15.8012C17.118 15.8012 16.9032 13.0718 16.4832 11.7821C16.0303 10.3909 15.3547 9.09694 14.5147 7.90072C14.9294 7.63671 15.3718 7.36849 15.8525 7.24471C16.3207 7.12405 16.7849 7.21671 17.2029 7.45027C18.0056 7.89872 18.6969 8.64205 19.1147 9.45672C19.2627 11.7336 18.5465 14.0201 17.118 15.8012Z" fill="#94A3B8"/>
<path d="M19.9716 9.24383C19.6629 5.1256 16.732 1.51781 12.7607 0.380035C10.5798 -0.244855 8.20892 -0.106411 6.11602 0.770258C4.3398 1.51426 2.79668 2.77937 1.71246 4.37049C-0.677988 7.87872 -0.553322 12.6603 2.00824 16.0452C4.4958 19.3323 8.86425 20.7698 12.8205 19.6054C16.7474 18.4496 19.6343 14.8925 19.9672 10.8149C20.0096 10.2923 20.0107 9.7665 19.9716 9.24383ZM18.8032 7.62271C18.1869 7.00649 17.3987 6.42538 16.5047 6.34538C15.594 6.26382 14.748 6.73671 14.0091 7.21271C13.542 6.60249 13.0429 6.01627 12.5271 5.44671C12.5945 5.40307 12.6622 5.35901 12.7303 5.31472C13.8909 4.55955 15.159 3.7345 16.5838 3.72715C17.6407 4.82849 18.4005 6.17005 18.8032 7.62271ZM12.2567 1.69337C12.2863 1.55515 12.2863 1.39026 12.2567 1.19626C13.5336 1.52248 14.7165 2.1187 15.7407 2.95115C15.23 3.04026 14.7085 3.19648 14.2518 3.44693C13.4523 3.84671 12.6854 4.32404 11.9383 4.81315C11.4718 4.32826 10.9805 3.86382 10.4629 3.43382C11.7005 2.68382 12.1089 2.38737 12.2567 1.69337ZM11.3405 1.01137L11.3408 1.01241C11.4049 1.23055 11.4732 1.46283 11.3718 1.67981C11.3111 1.80959 11.204 1.90848 11.0951 1.99782C10.7763 2.25958 10.415 2.47367 10.0578 2.68538C9.95222 2.74794 9.84702 2.81029 9.74336 2.87359C8.89025 2.25404 7.95714 1.73937 6.94847 1.42426C8.34581 0.936258 9.87514 0.793146 11.3405 1.01137ZM5.57802 2.03426C6.12891 2.04204 7.39447 2.29337 8.96314 3.36582C8.42714 3.71515 7.90314 4.04671 7.30358 4.27849C6.7858 4.47871 6.24669 4.61871 5.70647 4.7436C5.44099 4.80487 5.17325 4.85841 4.90542 4.91197C4.44665 5.00371 3.98764 5.0955 3.53935 5.22627C2.86557 5.42293 2.23824 5.7416 1.68513 6.17427C2.50402 4.43293 3.86202 2.97515 5.57802 2.03426ZM2.54135 14.1396C2.39624 14.3845 2.28513 14.6538 2.21024 14.9285C0.918014 12.8774 0.507125 10.3427 1.05624 7.98338C1.88157 7.01649 2.83224 6.2596 4.08358 5.9596C4.43805 5.87468 4.79514 5.80041 5.15212 5.72617C6.03001 5.54359 6.90718 5.36116 7.74291 5.02071C8.34843 4.77407 8.88328 4.4297 9.42661 4.07986C9.51577 4.02245 9.60517 3.96489 9.69514 3.9076C10.2005 4.30982 10.7109 4.77493 11.2205 5.29649C9.51003 6.4796 7.91292 7.82472 6.43025 9.28205C5.36913 10.3254 4.36935 11.4365 3.5058 12.6503C3.16291 13.1325 2.84291 13.6305 2.54135 14.1396ZM8.47603 19.1052C7.63291 19.1614 4.34535 17.6238 2.92868 15.9185C2.93757 15.4258 3.05024 14.9536 3.30135 14.5281C3.43802 14.2965 3.58024 14.0681 3.72646 13.8423C4.06646 13.3169 4.43246 12.8087 4.82135 12.3185C5.99358 10.8401 7.35425 9.51205 8.77469 8.27427C9.73981 7.43316 10.7545 6.64893 11.81 5.92493C12.3798 6.54938 12.8736 7.13427 13.3069 7.69738C12.6674 8.17072 12.0187 8.70516 11.5958 9.38916C11.2378 9.96827 11.016 10.6283 10.8458 11.2838C10.6855 11.9008 10.5876 12.5276 10.4897 13.1552C10.4458 13.4365 10.4018 13.718 10.3523 13.9987C10.2025 14.8458 10.0096 15.6863 9.74625 16.5058C9.44847 17.4325 9.08358 18.3352 8.47603 19.1052ZM16.2883 15.361C16.2778 15.9116 16.1929 16.4696 15.9838 16.9816C14.186 18.5452 11.8563 19.3518 9.4507 19.2127C10.3256 17.9163 10.7594 16.303 11.0696 14.7876C11.1605 14.343 11.2294 13.8874 11.2985 13.4298C11.4738 12.2693 11.6511 11.0959 12.1958 10.0569C12.56 9.36227 13.192 8.84316 13.8129 8.38405C14.5198 9.39383 15.1103 10.4738 15.5305 11.6343C15.9583 12.8156 16.312 14.0947 16.2883 15.361ZM17.118 15.8012C17.118 15.8012 16.9032 13.0718 16.4832 11.7821C16.0303 10.3909 15.3547 9.09694 14.5147 7.90072C14.9294 7.63671 15.3718 7.36849 15.8525 7.24471C16.3207 7.12405 16.7849 7.21671 17.2029 7.45027C18.0056 7.89872 18.6969 8.64205 19.1147 9.45672C19.2627 11.7336 18.5465 14.0201 17.118 15.8012Z" stroke="#94A3B8"/>
</svg>
