<svg width="20" height="14" viewBox="0 0 20 14" fill="none" xmlns="http://www.w3.org/2000/svg">
<path d="M18.9066 5.35L17.7341 4.41188C17.7294 4.40812 17.7247 4.40344 17.72 4.39969L18.8116 4.18125C18.9575 4.15219 19.0625 4.02406 19.0625 3.875V2.9375C19.0625 2.765 18.9225 2.625 18.75 2.625H17.1875C17.015 2.625 16.875 2.765 16.875 2.9375V3.485C16.8678 3.47531 16.8606 3.46563 16.8534 3.45594C16.8337 3.40156 16.7987 3.35719 16.7544 3.32187C16.5784 3.07281 16.4278 2.82344 16.3297 2.60781L15.8016 1.44625C15.465 0.705312 14.5638 0.125 13.75 0.125H6.25C5.43625 0.125 4.535 0.705312 4.19844 1.44625L3.67063 2.6075C3.5725 2.82313 3.42188 3.07281 3.24594 3.32187C3.20156 3.35719 3.16687 3.40156 3.14687 3.45594C3.13969 3.46563 3.13281 3.475 3.12531 3.485V2.9375C3.12531 2.765 2.98531 2.625 2.81281 2.625H1.25C1.0775 2.625 0.9375 2.765 0.9375 2.9375V3.875C0.9375 4.02406 1.0425 4.15219 1.18875 4.18125L2.28031 4.39969C2.27562 4.40344 2.27094 4.40812 2.26625 4.41188L1.09344 5.35C0.480313 5.84062 0 6.84 0 7.625V12.9375C0 13.4544 0.420625 13.875 0.9375 13.875H3.4375C3.95438 13.875 4.375 13.4544 4.375 12.9375V12.3125H15.625V12.9375C15.625 13.4544 16.0456 13.875 16.5625 13.875H19.0625C19.5794 13.875 20 13.4544 20 12.9375V7.625C20 6.84 19.5197 5.84062 18.9066 5.35ZM16.0669 11.6875L15.3503 10.9709C15.0462 10.6669 14.4925 10.4375 14.0625 10.4375H5.78125C5.35125 10.4375 4.7975 10.6669 4.49344 10.9709L3.77688 11.6875H1.5625C1.04562 11.6875 0.625 11.2669 0.625 10.75V9.1875H0.9375V9.5C0.9375 10.1894 1.49812 10.75 2.1875 10.75H3.125C3.2975 10.75 3.4375 10.61 3.4375 10.4375C3.4375 10.265 3.2975 10.125 3.125 10.125H2.1875C1.84281 10.125 1.5625 9.84469 1.5625 9.5V9.1875H2.1875C2.44688 9.1875 2.85 9.35437 3.03344 9.53781C3.09437 9.59875 3.17437 9.62938 3.25437 9.62938C3.33437 9.62938 3.41438 9.59875 3.47531 9.53781C3.5975 9.41562 3.5975 9.21813 3.47531 9.09594C3.17125 8.79187 2.61781 8.5625 2.1875 8.5625H0.625V7.625C0.625 7.51469 0.6425 7.39562 0.667188 7.27406C0.867188 7.48281 1.15813 7.625 1.5625 7.625H4.0625C4.14531 7.625 4.22469 7.59219 4.28344 7.53344L4.6875 7.12938L5.09156 7.53344C5.15 7.59219 5.22969 7.625 5.3125 7.625H8.93313L9.77906 8.47094C9.84 8.53188 9.92 8.5625 10 8.5625C10.08 8.5625 10.16 8.53188 10.2209 8.47094L11.0669 7.625H14.6875C14.7703 7.625 14.85 7.59219 14.9084 7.53344L15.3125 7.12938L15.7166 7.53344C15.775 7.59219 15.8547 7.625 15.9375 7.625H18.4375C18.8419 7.625 19.1328 7.48281 19.3328 7.27406C19.3575 7.39562 19.375 7.51469 19.375 7.625V8.5625H17.8125C17.3825 8.5625 16.8288 8.79187 16.5247 9.09594C16.4025 9.21813 16.4025 9.41562 16.5247 9.53781C16.5856 9.59875 16.6656 9.62938 16.7456 9.62938C16.8256 9.62938 16.9056 9.59875 16.9666 9.53781C17.15 9.35437 17.5531 9.1875 17.8125 9.1875H18.4375V9.5C18.4375 9.84469 18.1572 10.125 17.8125 10.125H16.875C16.7025 10.125 16.5625 10.265 16.5625 10.4375C16.5625 10.61 16.7025 10.75 16.875 10.75H17.8125C18.5019 10.75 19.0625 10.1894 19.0625 9.5V9.1875H19.375V10.75C19.375 11.2669 18.9544 11.6875 18.4375 11.6875H16.0669ZM15.1831 11.6875H4.66062L4.93531 11.4128C5.11875 11.2294 5.52187 11.0625 5.78125 11.0625H14.0625C14.3219 11.0625 14.725 11.2294 14.9084 11.4128L15.1831 11.6875ZM3.6125 3.875H16.3875C16.6903 4.27531 17.0363 4.65406 17.3434 4.9L17.7194 5.20063L15.5091 6.08469L15.5084 6.085C15.4706 6.10031 15.435 6.12313 15.4044 6.15375L15.0919 6.46625L14.5581 7H10.9375C10.8547 7 10.775 7.03281 10.7166 7.09156L10 7.80812L9.28344 7.09156C9.225 7.03281 9.14531 7 9.0625 7H5.44187L4.90844 6.46656L4.59594 6.15406C4.56531 6.12344 4.52969 6.10063 4.49187 6.08531L4.49125 6.085L2.28094 5.20094L2.65687 4.90031C2.96375 4.65406 3.30969 4.27531 3.6125 3.875ZM19.0441 6.50594C18.9813 6.8325 18.7787 7 18.4375 7H16.0669L15.7544 6.6875L15.8006 6.64125L18.2803 5.64937L18.5159 5.83812C18.7141 5.99656 18.8969 6.2375 19.0441 6.50594ZM17.5 3.25H18.4375V3.61875L17.5 3.80625V3.25ZM4.23906 2.86625L4.76687 1.705C5.0025 1.18719 5.68156 0.75 6.25 0.75H13.75C14.3184 0.75 14.9975 1.18719 15.2328 1.70469L15.7609 2.86625C15.8159 2.98687 15.8875 3.11719 15.9659 3.25H4.03406C4.1125 3.11719 4.18437 2.98687 4.23906 2.86625ZM1.5625 3.25H2.5V3.80625L1.5625 3.61875V3.25ZM1.48375 5.83812L1.71937 5.64937L4.19938 6.64125L4.24563 6.6875L3.93313 7H1.5625C1.22125 7 1.01875 6.8325 0.955938 6.50594C1.10312 6.2375 1.28563 5.99656 1.48375 5.83812ZM3.4375 13.25H0.9375C0.765312 13.25 0.625 13.1097 0.625 12.9375V11.9922C0.886875 12.1903 1.20938 12.3125 1.5625 12.3125H3.75V12.9375C3.75 13.1097 3.60969 13.25 3.4375 13.25ZM19.0625 13.25H16.5625C16.3903 13.25 16.25 13.1097 16.25 12.9375V12.3125H18.4375C18.7906 12.3125 19.1131 12.1903 19.375 11.9922V12.9375C19.375 13.1097 19.2347 13.25 19.0625 13.25Z" fill="#94A3B8"/>
</svg>
