<svg width="25" height="26" viewBox="0 0 25 26" fill="none" xmlns="http://www.w3.org/2000/svg">
<path d="M5.47143 1.017C5.76287 0.992508 6.01267 1.06353 6.1743 1.33047C6.53676 1.91824 6.90166 2.506 7.24697 3.10846C7.64616 3.80398 8.01352 4.5191 8.40536 5.22197C8.50577 5.41054 8.64536 5.58197 8.76292 5.7632C8.87067 5.93463 8.97353 6.11096 9.07394 6.28239C9.27966 6.67179 9.26986 7.06363 8.96374 7.37466C8.52781 7.82038 8.0478 8.23426 7.58494 8.65794C7.19799 9.01305 6.79635 9.35347 6.4192 9.71592C6.12532 10 6.0494 10.3551 6.24777 10.7298C6.5539 11.3029 6.85758 11.876 7.19309 12.4368C8.4372 14.5111 10.0266 16.2744 12.0348 17.6336C12.8087 18.1601 13.6144 18.6426 14.4275 19.103C15.194 19.5365 15.4928 19.463 16.0879 18.7993C16.6414 18.1846 17.1753 17.5601 17.7263 16.9405C17.8586 16.7911 18.0178 16.6589 18.1721 16.5315C18.4855 16.2671 18.8284 16.2377 19.1884 16.4189C19.2888 16.4679 19.3966 16.512 19.4847 16.5756C20.4398 17.2589 21.5076 17.7414 22.5166 18.3218C23.0579 18.6328 23.5844 18.9659 24.1158 19.2842C24.4024 19.4532 24.5175 19.7006 24.4979 20.041C24.444 20.9986 24.2848 21.939 23.7289 22.7472C23.4962 23.0827 23.1656 23.3766 22.8325 23.6141C21.9093 24.2607 20.8782 24.6598 19.7811 24.9048C18.7843 25.1276 17.79 25.0468 16.8349 24.748C14.9908 24.1798 13.1736 23.5284 11.5009 22.5414C9.98253 21.6427 8.60128 20.5577 7.32289 19.3455C5.70409 17.805 4.25917 16.125 3.09098 14.2123C2.32934 12.9707 1.78565 11.6335 1.2934 10.2694C0.994621 9.44653 0.700738 8.631 0.568491 7.75915C0.416652 6.7722 0.52196 5.82198 0.837884 4.88645C1.12197 4.04154 1.47708 3.23336 2.01341 2.5109C2.43465 1.95008 2.96118 1.53864 3.64201 1.35496C4.18814 1.21047 4.73917 1.09537 5.28776 0.968018C5.35878 1.02435 5.4151 1.02435 5.47143 1.017Z" fill="#1A5EFF"/>
</svg>
